<svg id="Layer_1" data-name="Layer 1" xmlns="http://www.w3.org/2000/svg" xmlns:xlink="http://www.w3.org/1999/xlink" viewBox="0 0 250 250"><defs><style>.cls-1{fill:url(#linear-gradient);}.cls-2,.cls-3{fill:#fff;stroke:#fff;stroke-miterlimit:10;}.cls-2{stroke-width:3px;}.cls-3{stroke-width:2px;}</style><linearGradient id="linear-gradient" x1="125" y1="200" x2="125" y2="450" gradientTransform="matrix(1, 0, 0, -1, 0, 450)" gradientUnits="userSpaceOnUse"><stop offset="0" stop-color="#fbb040"/><stop offset="1" stop-color="#ed8b00"/></linearGradient></defs><circle class="cls-1" cx="125" cy="125" r="125"/><path class="cls-2" d="M127.78,195h-7.64c-.4-.08-.79-.17-1.19-.24-3.32-.53-6.69-.82-9.93-1.63a61.64,61.64,0,0,1-45.31-73c4-18.33,14.51-32,30.86-41.14,3.74-2.07,7.92-3.35,11.88-5,.43-.18,1.06-.59,1.07-.91.08-3.22,0-6.44,0-9.82H99.4V55h49.12v8.23h-8.19c0,3.09,0,6.09,0,9.08A1.44,1.44,0,0,0,141.53,74a58.62,58.62,0,0,1,15.45,7c.33.21.69.37,1.23.65l12.16-12.2,17.37,17.4c-4,4-8.12,8.14-12.27,12.3l1.18,2a60.52,60.52,0,0,1,8.5,24.84,59.73,59.73,0,0,1-8,38.32c-9.58,16.08-23.61,26-42,29.61C132.74,194.41,130.25,194.65,127.78,195Zm-4-8.2c29.34.13,53.51-23.94,53.65-53.42a53.75,53.75,0,0,0-53.32-53.76c-29.29-.13-53.48,23.9-53.64,53.28A53.73,53.73,0,0,0,123.78,186.8ZM115.84,71.67H132v-8.4h-16.2Zm54.75,9.46-5.54,5.52L170.37,92l5.57-5.53Z"/><path class="cls-3" d="M149,129.36v8.72H119.57V99.86h8.64v29.5Z"/></svg>