<svg id="Layer_1" data-name="Layer 1" xmlns="http://www.w3.org/2000/svg" xmlns:xlink="http://www.w3.org/1999/xlink" viewBox="0 0 250 250"><defs><style>.cls-1{fill:url(#linear-gradient);}.cls-2,.cls-3{fill:#fff;}.cls-2{stroke:#fff;stroke-miterlimit:10;stroke-width:2.5px;}</style><linearGradient id="linear-gradient" x1="125" y1="50" x2="125" y2="-200" gradientTransform="translate(0 200)" gradientUnits="userSpaceOnUse"><stop offset="0" stop-color="#fbb040"/><stop offset="1" stop-color="#ed8b00"/></linearGradient></defs><circle class="cls-1" cx="125" cy="125" r="125"/><path class="cls-2" d="M85.08,55h79.85c0,1.27,0,2.55.07,3.82.17,8.45,6.3,14.48,14.73,14.5h3.61V74.7q0,28.92,0,57.83a56.53,56.53,0,0,1-1.66,14.07c-3,11.82-9.64,21.29-18.83,29.1-9.65,8.2-20.83,13.6-32.72,17.66-1.54.53-3,1.09-4.58,1.64h-1.09c-.4-.18-.79-.39-1.2-.54-3.39-1.21-6.82-2.3-10.15-3.63-10.83-4.32-20.86-10-29.29-18.16-10.94-10.61-17-23.43-17.1-38.78-.11-19.86,0-39.73,0-59.6a8,8,0,0,1,.12-1c1.44,0,2.81,0,4.17,0A14.16,14.16,0,0,0,84.86,60.59C85,58.74,85,56.86,85.08,55Zm72.09,8.26H92.84c-.07.26-.13.47-.18.69-2.33,8.93-7.93,14.64-16.88,17-1,.26-.9.83-.9,1.5q0,25.15,0,50.31c0,13.92,5.28,25.48,15.43,34.89,8.35,7.74,18.26,12.86,28.85,16.75,6,2.2,6,2.17,11.9,0,10.7-4,20.73-9.18,29.11-17.12,9.49-9,14.78-20,14.92-33.18.12-11.34,0-22.69,0-34,0-5.84,0-11.67,0-17.5,0-1-.16-1.44-1.24-1.67a17.54,17.54,0,0,1-4-1.38C163.05,76.19,158.88,70.75,157.17,63.26Z"/><path class="cls-3" d="M116.08,145.5l-18.4-18.44,8.67-8.66,9.62,9.82,27.69-27.72c3.09,3.12,6,6,8.66,8.75Z"/></svg>