<svg id="Layer_1" data-name="Layer 1" xmlns="http://www.w3.org/2000/svg" xmlns:xlink="http://www.w3.org/1999/xlink" viewBox="0 0 250 250"><defs><style>.cls-1{fill:url(#linear-gradient);}.cls-2,.cls-3{fill:#fff;stroke:#fff;}.cls-2{stroke-miterlimit:10;stroke-width:2px;}.cls-3{stroke-linecap:round;stroke-linejoin:round;stroke-width:3px;}</style><linearGradient id="linear-gradient" x1="125" y1="200" x2="125" y2="450" gradientTransform="matrix(1, 0, 0, -1, 0, 450)" gradientUnits="userSpaceOnUse"><stop offset="0" stop-color="#fbb040"/><stop offset="1" stop-color="#ed8b00"/></linearGradient></defs><circle class="cls-1" cx="125" cy="125" r="125"/><path class="cls-2" d="M102.23,156.26c.69-4.14,1.35-8.06,2-12s1.46-8.14,2.08-12.22a2.63,2.63,0,0,0-.7-1.94q-8-7.94-16.12-15.77A17.83,17.83,0,0,0,88,113.17c.8-.22,1.13-.35,1.46-.4,7.58-1.1,15.15-2.21,22.72-3.26a2.42,2.42,0,0,0,2.11-1.54c3.25-6.71,6.58-13.38,9.88-20.07.23-.47.47-.93.84-1.64.33.6.58,1,.79,1.45q5.05,10.22,10.08,20.45a1.91,1.91,0,0,0,1.66,1.26c7.62,1.07,15.23,2.2,22.85,3.32.4.06.8.16,1.2.24l.31.47a7.83,7.83,0,0,0-1.32.85c-5.36,5.2-10.69,10.44-16.07,15.62a2.44,2.44,0,0,0-.8,2.49c1.35,7.67,2.64,15.36,3.95,23,0,.18,0,.36.09.72a11.54,11.54,0,0,1-1.08-.45c-6.73-3.54-13.47-7.06-20.18-10.64a2.66,2.66,0,0,0-2.86,0c-6.62,3.55-13.27,7-19.92,10.51C103.27,155.78,102.85,156,102.23,156.26Zm5-37.4c2.44,2.62,4.83,5.33,7.39,7.88a2.92,2.92,0,0,1,.9,3c-.68,3.54-1.24,7.09-1.89,10.85.55-.25.92-.4,1.28-.58a76,76,0,0,0,6.91-3.69,5.16,5.16,0,0,1,6.42,0c2.52,1.65,5.32,2.87,8.15,4.35,0-.39,0-.58-.06-.75-.6-3.51-1.19-7-1.84-10.53a2.26,2.26,0,0,1,.77-2.38c1.46-1.28,2.83-2.67,4.21-4.06s2.45-2.59,3.73-3.94a5,5,0,0,0-.66-.18c-3.48-.5-7-1-10.44-1.47a2.2,2.2,0,0,1-1.94-1.37c-1.32-2.84-2.75-5.64-4.14-8.45-.28-.57-.58-1.13-1-1.93-1.48,3-3,5.62-4.1,8.44-1,2.54-2.55,3.49-5.15,3.66C112.76,117.86,109.82,118.48,107.19,118.86Z"/><path class="cls-3" d="M123.3,52.5h3.4a18.18,18.18,0,0,1,7,3.18,10.62,10.62,0,0,0,9.59,2c7.21-1.75,12.35.41,16.22,6.78a10.82,10.82,0,0,0,8.21,5.36c6.6.9,11,4.93,12,11.48A12.81,12.81,0,0,0,186.42,91a12.9,12.9,0,0,1,6.2,8.27,15.79,15.79,0,0,1-.33,7.84,9.49,9.49,0,0,0,1.32,8.12,22.13,22.13,0,0,1,3.89,8.07v3.4c-1,2.22-1.64,4.67-3,6.62a12.21,12.21,0,0,0-2.06,10.55,16.16,16.16,0,0,1,.35,5.59c-.5,4.57-3.21,7.75-7.06,10a11.26,11.26,0,0,0-5.85,8.66,13.06,13.06,0,0,1-11.52,11.69,12.15,12.15,0,0,0-9.4,6.38c-2.06,3.58-5.11,6.17-9.36,6.58a24.56,24.56,0,0,1-6.71-.54c-2.92-.54-5.69-.34-8.12,1.37a21.9,21.9,0,0,1-8.07,3.89h-3.4c-2.22-1-4.67-1.64-6.62-3a12.21,12.21,0,0,0-10.55-2,16.55,16.55,0,0,1-5.74.34c-4.53-.54-7.55-3.39-9.75-7.2A10.81,10.81,0,0,0,82.31,180c-7-1-11.29-5.3-12.26-12.27a10.79,10.79,0,0,0-5.28-8.11c-6.53-4-8.58-9-6.82-16.45a9.8,9.8,0,0,0-1.48-8.24,21.93,21.93,0,0,1-4-8.18v-3.4A18.56,18.56,0,0,1,55.92,116a10.72,10.72,0,0,0,1.93-9.61c-1.65-6.71.58-12.1,6.53-15.67a11.42,11.42,0,0,0,5.69-8.78c.87-6.56,5.16-11.1,11.67-12a11.76,11.76,0,0,0,9.13-6.08,13,13,0,0,1,8.29-6.38,15.91,15.91,0,0,1,8,.3,9.49,9.49,0,0,0,8.11-1.32A22.21,22.21,0,0,1,123.3,52.5Zm-20.52,13c-2.64-.1-4,1.42-5.07,3.29A18.66,18.66,0,0,1,84,78.08c-4,.63-5,1.67-5.66,5.67a19.28,19.28,0,0,1-9.42,14.08c-3,1.83-3.64,3.34-2.79,6.76A18.91,18.91,0,0,1,62.74,121c-2.34,3.2-2.35,4.74,0,7.89a19,19,0,0,1,3.41,16.58c-.82,3.32-.17,4.88,2.77,6.64a19,19,0,0,1,9.5,14C79,170,80,171,83.77,171.58A19.06,19.06,0,0,1,98,181.28c1.85,3.17,3.22,3.73,6.81,2.83a18.81,18.81,0,0,1,16.35,3.2c3.17,2.3,4.67,2.27,7.89-.07a18.54,18.54,0,0,1,16.09-3.16c3.72.92,5.09.38,7-2.92a18.81,18.81,0,0,1,14-9.54c3.86-.61,4.9-1.65,5.51-5.49A18.89,18.89,0,0,1,181,152.38c3.34-2,4-3.52,3.05-7.29A18.55,18.55,0,0,1,187.23,129c2.37-3.26,2.37-4.73,0-8a18.55,18.55,0,0,1-3.15-16.08c.93-3.78.3-5.24-3.05-7.3a19.17,19.17,0,0,1-9.37-13.8c-.66-4-1.7-5.11-5.75-5.75A18.54,18.54,0,0,1,152.4,69c-2.1-3.43-3.49-4-7.41-3a16.54,16.54,0,0,1-9.63-.15,33.31,33.31,0,0,1-6.65-3.32c-3-1.91-4.56-2-7.46.09-.23.17-.45.34-.69.5a18.23,18.23,0,0,1-12.7,3.34C106.08,66.23,104.33,65.81,102.78,65.53Z"/></svg>