<svg id="Layer_1" data-name="Layer 1" xmlns="http://www.w3.org/2000/svg" xmlns:xlink="http://www.w3.org/1999/xlink" viewBox="0 0 250 250"><defs><style>.cls-1{fill:url(#linear-gradient);}.cls-2{fill:#fff;}</style><linearGradient id="linear-gradient" x1="125" y1="50" x2="125" y2="-200" gradientTransform="translate(0 200)" gradientUnits="userSpaceOnUse"><stop offset="0" stop-color="#fbb040"/><stop offset="1" stop-color="#ed8b00"/></linearGradient></defs><circle class="cls-1" cx="125" cy="125" r="125"/><path class="cls-2" d="M184.57,59.25h-1l-.22.35a1.71,1.71,0,0,0-.13.23,2.2,2.2,0,0,1-.12.19l-1.71,1.72c-3.86,3.87-7.86,7.88-11.83,11.78a1.58,1.58,0,0,1-1.05.29Q148.26,71.62,128,69.36l-5.12-.57-1.34-.17c-1-.13-2.12-.27-3.2-.3a3.47,3.47,0,0,0-2.42.92c-3.7,3.63-7.43,7.37-11,11l-6,6.05L50.59,134.53a8,8,0,0,1-.69.6l-.39.31-.26.23v1l.51.42.43.37,62.38,62.38a4.82,4.82,0,0,1,.36.43l.43.51h1l.22-.26.32-.38a8,8,0,0,1,.61-.7l1.85-1.86Q148.91,166,180.52,134.4a3.77,3.77,0,0,0,1.17-3.37c-1.79-15.88-3.6-32.12-5.53-49.67a1.32,1.32,0,0,1,.12-.72q6.16-6.23,12.38-12.4l1.5-1.49.59-.18V65.43Zm-33.44,42.93a3.29,3.29,0,0,1-.94,2.35,3.34,3.34,0,0,1-2.37,1,3.47,3.47,0,0,1-2.38-.93,3.37,3.37,0,0,1,2.32-5.73h0a3.3,3.3,0,0,1,2.31,1A3.36,3.36,0,0,1,151.13,102.18Zm9.28-19.46-.81.81c-2.26,2.27-4.39,4.41-6.57,6.51a1.93,1.93,0,0,1-.73-.1,13.32,13.32,0,0,0-11.08,1,12.75,12.75,0,0,0-6.2,8.83,13,13,0,0,0,19.18,13.78c4.63-2.6,6.89-6.86,6.54-12.32a11.86,11.86,0,0,0-.47-2.4c-.12-.42-.23-.85-.31-1.27a1.93,1.93,0,0,1-.05-.51c2.17-2.23,4.37-4.44,6.68-6.75l.68-.68.19,1.67.73,6.4,3.19,28.64c0,.28.06.56.1.83a12.84,12.84,0,0,1,.17,1.81,2.32,2.32,0,0,1-.31.83l-.07.13a1.92,1.92,0,0,1-.2.19l-.23.21-2.17,2.17q-27.13,27.15-54.27,54.29a2.86,2.86,0,0,0-.38.48L62.83,136.05l.37-.38,12.08-12.08Q97.56,101.32,119.83,79a1.94,1.94,0,0,1,1.89-.62c6.85.8,13.71,1.55,20.57,2.3l7.67.85,8.06.91Z"/></svg>