<?xml version="1.0" encoding="utf-8"?>
<!-- Generator: Adobe Illustrator 24.2.1, SVG Export Plug-In . SVG Version: 6.00 Build 0)  -->
<svg version="1.1" id="design" xmlns="http://www.w3.org/2000/svg" xmlns:xlink="http://www.w3.org/1999/xlink" x="0px" y="0px"
	 viewBox="0 0 200 180" style="enable-background:new 0 0 200 180;" xml:space="preserve">
<style type="text/css">
	.st0{fill:#ED8B00;}
	.st1{fill:#FBB040;}
	.st2{fill:#0383DB;}
	.st3{fill:#005EB8;}
	.st4{fill:#FFFFFF;}
</style>
<path class="st0" d="M109.4,68.6v-14h27.4v14h11.4V52.2c0-4.8-3.9-8.8-8.8-8.8l0,0h-32.1c-4.8,0-8.8,3.9-8.8,8.8l0,0v16.4H109.4z"/>
<path class="st1" d="M191.8,68.6H54.3c-4.5,0-8.1,3.7-8.2,8.2v95.1c0,4.5,3.7,8.1,8.2,8.2h137.5c4.5,0,8.1-3.7,8.2-8.2V76.6
	C200,72.1,196.3,68.5,191.8,68.6L191.8,68.6z"/>
<path class="st2" d="M191.8,68.6H54.3c-4.5,0-8.1,3.7-8.2,8.2v95.1c0,4.5,3.7,8.1,8.2,8.2h137.5c4.5,0,8.1-3.7,8.2-8.2V76.6
	C200,72.1,196.3,68.5,191.8,68.6L191.8,68.6z"/>
<path class="st3" d="M199.9,114.2V76.6c0-4.5-3.7-8.1-8.2-8.2H54c-4.5,0.1-8.1,3.7-8.2,8.2v37.9C97.3,144.7,148.7,144.6,199.9,114.2
	z"/>
<path class="st0" d="M130.2,125.3h-14c-0.9,0.1-1.6,0.8-1.7,1.7v20.5c0.1,0.9,0.8,1.6,1.7,1.7h14c0.9-0.1,1.6-0.8,1.7-1.7V127
	C131.7,125.7,131.3,125.3,130.2,125.3z"/>
<path class="st1" d="M88.8,94c14.9-9.3,24.6-25,24.6-42.5C113.4,23.1,88,0,56.7,0S0,23.1,0,51.5S25.4,103,56.7,103h4.1
	c17.9,16,42.2,11.2,42.2,11.2C95.9,110.4,91.8,102.6,88.8,94z"/>
<g>
	<path class="st4" d="M54.6,16.4c1.4,0,2.7,0,4.1,0c0.2,0,0.3,0.1,0.5,0.1c4.9,0.3,9.6,1.6,13.8,4C84.5,27,90.8,36.8,91.6,49.9
		c0.4,6.3-1,12.3-4,17.9c-5.4,9.9-13.7,15.9-24.7,18c-1.3,0.3-2.7,0.4-4,0.6c-1.4,0-2.7,0-4.1,0c-0.2,0-0.3-0.1-0.5-0.1
		c-4.3-0.3-8.4-1.3-12.2-3.2c-10.7-5.3-17.3-13.8-19.6-25.6c-0.3-1.3-0.4-2.7-0.6-4c0-1.4,0-2.7,0-4.1c0-0.2,0.1-0.4,0.1-0.6
		c0.3-4.9,1.6-9.5,4-13.8c5.4-9.9,13.7-15.9,24.7-18C51.9,16.7,53.3,16.6,54.6,16.4z M83.4,51.4c0-14.7-12-26.8-26.7-26.8
		C42,24.6,30,36.6,30,51.4c0,14.7,12.1,26.8,26.8,26.8C71.4,78.2,83.4,66.1,83.4,51.4z"/>
	<path class="st4" d="M56.7,28.7c12.4,0,22.7,10.2,22.7,22.7c0,12.5-10.2,22.7-22.7,22.7c-12.4,0-22.6-10.2-22.6-22.7
		C34,39,44.2,28.7,56.7,28.7z M58.7,35c0,1.4,0,2.7,0,4c-1.4,0-2.7,0-4.1,0c0-1.4,0-2.7,0-4c-1.4,0-2.7,0-4.1,0c0,1.4,0,2.7,0,4.1
		c-2.1,0-4.1,0-6.2,0c0,2.1,0,4.1,0,6.1c-1.4,0-2.7,0-4,0c0,1.4,0,2.7,0,4.1c1.4,0,2.7,0,4,0c0,1.4,0,2.7,0,4.1c-1.4,0-2.7,0-4,0
		c0,1.4,0,2.7,0,4.1c1.4,0,2.7,0,4.1,0c0,2.1,0,4.1,0,6.1c2.1,0,4.1,0,6.2,0c0,1.4,0,2.7,0,4.1c1.4,0,2.7,0,4.1,0c0-1.4,0-2.7,0-4
		c1.4,0,2.7,0,4.1,0c0,1.4,0,2.7,0,4c1.4,0,2.7,0,4.1,0c0-1.4,0-2.7,0-4.1c2.1,0,4.1,0,6.1,0c0-2.1,0-4.1,0-6.1c1.4,0,2.7,0,4,0
		c0-1.4,0-2.7,0-4.1c-1.4,0-2.7,0-4,0c0-1.4,0-2.7,0-4.1c1.4,0,2.7,0,4,0c0-1.4,0-2.7,0-4.1c-1.4,0-2.7,0-4.1,0c0-2.1,0-4.1,0-6.2
		c-2.1,0-4.1,0-6.2,0c0-1.4,0-2.7,0-4C61.4,35,60.1,35,58.7,35z"/>
	<path class="st4" d="M64.9,43.2c0,5.5,0,10.9,0,16.3c-5.4,0-10.8,0-16.3,0c0-5.4,0-10.8,0-16.3C54,43.2,59.4,43.2,64.9,43.2z
		 M60.7,47.4c-2.8,0-5.4,0-8,0c0,2.7,0,5.3,0,8c2.7,0,5.3,0,8,0C60.7,52.7,60.7,50.1,60.7,47.4z"/>
</g>
</svg>
