<?xml version="1.0" encoding="utf-8"?>
<!-- Generator: Adobe Illustrator 24.2.1, SVG Export Plug-In . SVG Version: 6.00 Build 0)  -->
<svg version="1.1" id="design" xmlns="http://www.w3.org/2000/svg" xmlns:xlink="http://www.w3.org/1999/xlink" x="0px" y="0px"
	 viewBox="0 0 200 180" style="enable-background:new 0 0 200 180;" xml:space="preserve">
<style type="text/css">
	.st0{fill:#0383DB;}
	.st1{fill:#005EB8;}
	.st2{fill:#F1920C;}
	.st3{fill:#FBB040;}
	.st4{fill:#FFFFFF;}
	.st5{fill:#EF740F;}
</style>
<path class="st0" d="M96.7,132l11.9-8.4l-2.6-15.3l-14.1-3.8l-3-4.7l2.5-14.3l-12.8-8.9l-12.4,7.5L60.7,83l-8.4-12L37,73.7
	l-3.9,14.1l-4.7,3l-14.3-2.5L5.2,101l7.2,12.6l-1.1,5.5l-11.8,8.6L2.2,143l14.1,3.9l3,4.7l-2.5,14.3l12.7,8.9l12.6-7.2l5.5,1.1
	l8.3,11.9l15.3-2.7l3.7-14.4l4.7-3l14.3,2.5l8.9-12.7l-7.2-12.6L96.7,132z M54,157.6c-17.6,0-31.8-14.2-31.8-31.8S36.4,94,54,94
	c17.5,0,31.7,14.2,31.8,31.7l0,0C85.8,143.2,71.6,157.5,54,157.6C54,157.5,54,157.5,54,157.6z"/>
<path class="st1" d="M107.4,39.8l0.3-9.8l-8.2-4l-1.3-3.3l3.3-8.7l-6.8-7.1L86,9.8l-3.3-1.5l-3.5-8.5l-9.9-0.3l-4,8.2L62,9l-8.6-3.3
	l-7.1,6.8l2.9,8.8l-1.5,3.2l-8.4,3.7L39,38.1l8.2,4.1l1.3,3.3L45,54.2l6.8,7.1l8.7-2.9l3.3,1.5l3.7,8.4l9.8,0.3l4-8.2l3.3-1.3
	l8.6,3.3l7.2-6.9l-2.9-8.7l1.5-3.2L107.4,39.8z M73.4,52.6c-10.4,0-18.8-8.4-18.8-18.8S63.1,15,73.5,15s18.8,8.4,18.8,18.8
	S83.9,52.6,73.4,52.6C73.5,52.7,73.5,52.7,73.4,52.6z"/>
<circle class="st2" cx="136.9" cy="89.9" r="63.6"/>
<circle class="st3" cx="136.9" cy="89.9" r="50.5"/>
<g>
	<path class="st4" d="M113.1,71.1L94.1,90l18.9,18.9l5.3-5.3L104.7,90l13.6-13.6L113.1,71.1z"/>
	<path class="st4" d="M155.6,76.3L169.1,90l-13.6,13.6l5.3,5.3l19-18.9l-18.9-18.9L155.6,76.3z"/>
	<path class="st4" d="M124.8,102.2l18-30l6.4,3.9l-18,29.9L124.8,102.2z"/>
</g>
<g>
	<path class="st3" d="M85.9,28.7c-0.1,0.2-0.1,0.4-0.1,0.6c-0.3,1.2-0.8,2.3-1.7,3.2c-1.5,1.6-3.1,3.1-4.6,4.6
		c-2.8,2.7-7.2,2.4-9.6-0.7c-0.1-0.1-0.2-0.2-0.2-0.3c0.5-0.5,1-1,1.5-1.5s1.2-0.4,1.8,0.1c0.7,0.7,1.5,0.9,2.5,0.8
		c0.6-0.1,1.2-0.3,1.7-0.8c1.1-1.1,2.1-2.1,3.2-3.2c0.5-0.5,1-1,1.4-1.4c1.2-1.2,1.2-3,0-4.2c-1.2-1.2-3-1.1-4.2,0
		c-0.7,0.7-1.4,1.4-2.1,2.1c-0.1,0.1-0.1,0.1-0.3,0.1c-1.3-0.5-2.7-0.7-4.1-0.6c0-0.1,0.1-0.1,0.1-0.2c1.3-1.3,2.6-2.5,3.8-3.8
		c1.1-1.1,2.3-1.7,3.8-1.9c0,0,0.1,0,0.1-0.1c0.5,0,0.9,0,1.4,0c0,0,0,0,0.1,0c2.6,0.3,4.8,2.1,5.5,4.7c0.1,0.3,0.2,0.7,0.2,1
		C85.9,27.7,85.9,28.2,85.9,28.7z"/>
	<path class="st3" d="M60.9,39.4C61,39.2,61,39,61,38.8c0.3-1.2,0.8-2.3,1.7-3.2c1.6-1.6,3.2-3.2,4.8-4.8c2.8-2.7,7.4-2.2,9.6,1
		l0.1,0.1c-0.5,0.5-1,1-1.5,1.5s-1.2,0.4-1.7-0.1c-0.6-0.6-1.3-0.9-2.2-0.8c-0.8,0-1.5,0.3-2,0.9c-1.5,1.5-3,3-4.6,4.6
		c-0.2,0.2-0.3,0.4-0.5,0.6c-0.7,1.3-0.4,2.9,0.7,3.8c1.2,0.9,2.8,0.9,3.9-0.2c0.7-0.7,1.5-1.5,2.2-2.2c0.1-0.1,0.2-0.1,0.4-0.1
		c1.2,0.5,2.4,0.6,4,0.5c0,0.1-0.1,0.1-0.1,0.2c-1.3,1.3-2.6,2.6-3.9,3.9c-1.1,1.1-2.3,1.7-3.9,1.8h-0.1c-0.5,0-0.9,0-1.4,0
		c0-0.1-0.1,0-0.1-0.1c-2.8-0.4-4.9-2.5-5.4-5.1c0-0.2,0-0.4-0.1-0.5C60.9,40.4,60.9,39.9,60.9,39.4z"/>
</g>
<g>
	<path class="st3" d="M73.9,125.8c0-10.9-8.9-19.8-19.8-19.9c-10.9,0-19.8,8.9-19.8,19.8c0,10.9,8.9,19.9,19.8,19.9
		C64.9,145.6,73.9,136.7,73.9,125.8z"/>
	<path class="st2" d="M52.5,99.9c1,0,2,0,3,0c0.1,0,0.3,0.1,0.4,0.1c3.6,0.2,7.1,1.2,10.2,3c8.5,4.8,13.1,12.1,13.7,21.8
		c0.3,4.7-0.7,9.1-3,13.2c-4,7.3-10.1,11.8-18.3,13.4c-1,0.2-2,0.3-3,0.4c-1,0-2,0-3,0c-0.1,0-0.3-0.1-0.4-0.1
		c-3.2-0.2-6.2-1-9.1-2.4c-7.9-3.9-12.8-10.2-14.5-19c-0.2-1-0.3-2-0.4-3c0-1,0-2,0-3c0-0.1,0.1-0.3,0.1-0.4c0.3-3.6,1.2-7,3-10.2
		c4-7.3,10.1-11.8,18.3-13.4C50.5,100.1,51.5,100,52.5,99.9z M73.9,125.8c0-10.9-8.9-19.8-19.8-19.9c-10.9,0-19.8,8.9-19.8,19.8
		c0,10.9,8.9,19.9,19.8,19.9C64.9,145.6,73.9,136.7,73.9,125.8z"/>
	<g>
		<path class="st5" d="M55.8,111.8c0,1.2,0,2.3,0,3.4c-1.2,0-2.3,0-3.5,0c0-1.2,0-2.3,0-3.4c-1.2,0-2.3,0-3.5,0c0,1.2,0,2.3,0,3.5
			c-1.8,0-3.5,0-5.3,0c0,1.8,0,3.5,0,5.2c-1.2,0-2.3,0-3.4,0c0,1.2,0,2.3,0,3.5c1.2,0,2.3,0,3.4,0c0,1.2,0,2.3,0,3.5
			c-1.2,0-2.3,0-3.4,0c0,1.2,0,2.3,0,3.5c1.2,0,2.3,0,3.5,0c0,1.8,0,3.5,0,5.2c1.8,0,3.5,0,5.3,0c0,1.2,0,2.3,0,3.5
			c1.2,0,2.3,0,3.5,0c0-1.2,0-2.3,0-3.4c1.2,0,2.3,0,3.5,0c0,1.2,0,2.3,0,3.4c1.2,0,2.3,0,3.5,0c0-1.2,0-2.3,0-3.5
			c1.8,0,3.5,0,5.2,0c0-1.8,0-3.5,0-5.2c1.2,0,2.3,0,3.4,0c0-1.2,0-2.3,0-3.5c-1.2,0-2.3,0-3.4,0c0-1.2,0-2.3,0-3.5
			c1.2,0,2.3,0,3.4,0c0-1.2,0-2.3,0-3.5c-1.2,0-2.3,0-3.5,0c0-1.8,0-3.5,0-5.3c-1.8,0-3.5,0-5.3,0c0-1.2,0-2.3,0-3.5
			C58.1,111.8,57,111.8,55.8,111.8z"/>
		<path class="st3" d="M61,118.8c0,4.7,0,9.3,0,14c-4.6,0-9.3,0-13.9,0c0-4.6,0-9.3,0-14C51.7,118.8,56.3,118.8,61,118.8z
			 M57.5,122.4c-2.4,0-4.6,0-6.9,0c0,2.3,0,4.6,0,6.8c2.3,0,4.6,0,6.9,0C57.5,126.9,57.5,124.7,57.5,122.4z"/>
	</g>
</g>
</svg>
