<?xml version="1.0" encoding="utf-8"?>
<!-- Generator: Adobe Illustrator 24.2.1, SVG Export Plug-In . SVG Version: 6.00 Build 0)  -->
<svg version="1.1" id="design" xmlns="http://www.w3.org/2000/svg" xmlns:xlink="http://www.w3.org/1999/xlink" x="0px" y="0px"
	 viewBox="0 0 100 100" style="enable-background:new 0 0 100 100;" xml:space="preserve">
<style type="text/css">
	.st0{fill:url(#SVGID_1_);}
</style>
<linearGradient id="SVGID_1_" gradientUnits="userSpaceOnUse" x1="50" y1="99.8874" x2="50" y2="0.1126">
	<stop  offset="0" style="stop-color:#FBB040"/>
	<stop  offset="1" style="stop-color:#ED8B00"/>
</linearGradient>
<path class="st0" d="M61.9,1.6c-2.7-0.6-5.4-0.9-8.2-1.3c-0.3,0-0.6-0.1-0.9-0.2c-1.9,0-3.9,0-5.8,0c-1.9,0.3-3.8,0.4-5.7,0.8
	C30.9,2.7,22,7.4,14.5,15C7.4,22.1,2.9,30.7,1,40.7c-0.3,1.8-0.5,3.6-0.7,5.4c0,0.3-0.1,0.7-0.2,1c0,1.9,0,3.9,0,5.8
	c0.3,1.9,0.4,3.8,0.8,5.7c2,11.6,7.5,21.2,16.3,28.9c7.4,6.6,16.1,10.6,26,11.9c15.5,2,29.1-2.2,40.7-12.8
	c8.1-7.4,13.1-16.6,15.2-27.3C104,33.4,87.5,7.7,61.9,1.6z M50,94.1C25.7,94,5.9,74.2,5.9,50C6,25.7,25.8,5.9,50.1,6
	C74.4,6,94.1,25.9,94,50.1C94,74.4,74.2,94.1,50,94.1z M50,11.8c-21,0-38.2,17.1-38.3,38.1C11.7,70.9,29,88.2,50,88.2
	C71,88.2,88.2,71,88.2,50C88.2,29.1,71,11.8,50,11.8z M49.9,82.4c-17.8-0.1-32.4-14.7-32.3-32.4C17.7,32.1,32.2,17.6,50,17.7
	c17.8,0,32.4,14.6,32.3,32.4C82.3,67.9,67.7,82.4,49.9,82.4z M67.5,32.5c-2.9,0-5.8,0-8.8,0c0-2,0-3.9,0-5.8c-2,0-3.9,0-5.8,0
	c0,1.9,0,3.8,0,5.7c-2,0-3.9,0-5.9,0c0-1.9,0-3.8,0-5.7c-2,0-3.9,0-5.9,0c0,2,0,3.9,0,5.8c-3,0-5.8,0-8.8,0c0,2.9,0,5.8,0,8.8
	c-2,0-3.9,0-5.8,0c0,1.9,0,3.8,0,5.9c2,0,3.9,0,5.8,0c0,2,0,3.9,0,5.8c-1.9,0-3.8,0-5.7,0c0,2,0,3.9,0,5.9c1.9,0,3.8,0,5.8,0
	c0,2.9,0,5.8,0,8.8c3,0,5.8,0,8.8,0c0,2,0,3.9,0,5.7c2,0,3.9,0,5.9,0c0-2,0-3.9,0-5.7c2,0,3.9,0,5.8,0c0,2,0,3.8,0,5.7
	c2,0,3.9,0,5.8,0c0-1.9,0-3.8,0-5.8c3,0,5.8,0,8.8,0c0-3,0-5.8,0-8.8c2,0,3.9,0,5.7,0c0-2,0-3.9,0-5.9c-1.9,0-3.8,0-5.7,0
	c0-2,0-3.9,0-5.9c2,0,3.9,0,5.7,0c0-2,0-3.9,0-5.8c-2,0-3.8,0-5.8,0C67.5,38.3,67.5,35.4,67.5,32.5z M61.6,61.7
	c-7.8,0-15.5,0-23.3,0c0-7.7,0-15.5,0-23.3c7.7,0,15.5,0,23.3,0C61.6,46.2,61.6,53.9,61.6,61.7z M52.9,52.9c-1.9,0-3.8,0-5.7,0
	c0-1.9,0-3.8,0-5.7c1.9,0,3.8,0,5.7,0C52.9,49.1,52.9,50.9,52.9,52.9z"/>
</svg>
