<svg id="design" xmlns="http://www.w3.org/2000/svg" viewBox="0 0 100 100"><defs><style>.cls-1{fill:#886ff9;}.cls-2{fill:#222;}</style></defs><circle class="cls-1" cx="49.99" cy="51.37" r="25"/><path class="cls-2" d="M58.38,40.85H55.3V38.46a1.09,1.09,0,0,0-1.09-1.09h-1.3a1.09,1.09,0,0,0-1.09,1.09v2.33H48.28V38.46a1.09,1.09,0,0,0-1.09-1.09H45.83a1.09,1.09,0,0,0-1.09,1.09v2.39H41.65A2.17,2.17,0,0,0,39.47,43v3.09H37.08A1.09,1.09,0,0,0,36,47.21v1.36a1.09,1.09,0,0,0,1.09,1.09h2.39v3.48H37.14a1.09,1.09,0,0,0-1.09,1.09v1.35a1.09,1.09,0,0,0,1.09,1.09h2.39v3.1A2.18,2.18,0,0,0,41.71,62H44.8v2.33a1.09,1.09,0,0,0,1.09,1.09h1.36a1.09,1.09,0,0,0,1.09-1.09V62h3.48v2.33a1.09,1.09,0,0,0,1.09,1.09h1.3a1.09,1.09,0,0,0,1.09-1.09V61.89h3.09a2.18,2.18,0,0,0,2.18-2.18v-3.1H62.9A1.09,1.09,0,0,0,64,55.52V54.17a1.09,1.09,0,0,0-1.09-1.09H60.57V49.54H62.9A1.09,1.09,0,0,0,64,48.45v-1.3a1.09,1.09,0,0,0-1.09-1.09H60.51c0-1,.05-2,.06-3A2.18,2.18,0,0,0,58.38,40.85ZM57,58.35h-14v-14H57Z"/><path class="cls-2" d="M88.88,32.93c3-2,6.06-4,9.09-6a7.09,7.09,0,0,0,2-1.71v-15A5.62,5.62,0,0,0,98.33,8.6c-3.5-2.31-7-4.64-10.48-7-1.34-.89-1.79-.89-3.1,0C81.13,4,77.52,6.46,73.87,8.84a2.57,2.57,0,0,0-1.31,2.42c0,1.75,0,3.5,0,5.32H27.42c0-1.61-.07-3.22,0-4.83a3.19,3.19,0,0,0-1.72-3.19c-3.5-2.24-6.94-4.59-10.4-6.9-1.39-.92-1.82-.92-3.18,0C8.64,4,5.13,6.33,1.6,8.66A5.42,5.42,0,0,0,0,10.15v15A8.32,8.32,0,0,0,2.11,27c3,2,6,4,9,6a1.32,1.32,0,0,1,.65,1.27q0,15.81,0,31.61a1.39,1.39,0,0,1-.73,1.33c-3.07,2-6.11,4.06-9.17,6.09A6.53,6.53,0,0,0,0,74.81v15A5.38,5.38,0,0,0,1.67,91.4q5.21,3.43,10.39,6.91c1.45,1,1.86,1,3.27,0,3.59-2.39,7.18-4.81,10.8-7.17a2.54,2.54,0,0,0,1.3-2.42c0-1.11,0-2.21,0-3.38h0v-4h0c0-1.68-.06-3.36,0-5a2.94,2.94,0,0,0-1.53-2.89c-3.23-2.07-6.39-4.25-9.59-6.35a1.33,1.33,0,0,1-.69-1.26q0-15.81,0-31.63a1.31,1.31,0,0,1,.69-1.25c3.23-2.12,6.43-4.31,9.68-6.4a2.78,2.78,0,0,0,1.44-2.75c-.07-1,0-2.07,0-3.21H72.58c0,1.16,0,2.29,0,3.41a2.53,2.53,0,0,0,1.29,2.43c3.3,2.14,6.54,4.36,9.83,6.52a1.31,1.31,0,0,1,.67,1.26q0,15.81,0,31.63a1.32,1.32,0,0,1-.69,1.25c-3.28,2.17-6.53,4.38-9.83,6.53A2.53,2.53,0,0,0,72.57,76v.29h.05V89.42a2.55,2.55,0,0,0,1.25,1.74c3.62,2.37,7.2,4.78,10.8,7.17,1.38.92,1.83.93,3.18,0,3.49-2.32,7-4.65,10.47-7A5.42,5.42,0,0,0,100,89.85v-15a7.17,7.17,0,0,0-2-1.65c-3-2-6-4-9.09-6a1.37,1.37,0,0,1-.74-1.32q0-15.79,0-31.6A1.32,1.32,0,0,1,88.88,32.93ZM11.76,28.7c-2.63-1.76-5-3.38-7.49-5a.8.8,0,0,1-.37-.81V14.61c.33-.15.49.13.69.25,2.16,1.43,4.31,2.89,6.49,4.31a1.29,1.29,0,0,1,.7,1.24C11.74,23.1,11.76,25.79,11.76,28.7Zm.05,58.6a56.51,56.51,0,0,0-.05,6.13l-7.46-5c-.21-.14-.41-.27-.41-.59,0-2.85,0-5.7,0-8.73,1.9,1.26,3.57,2.57,5.41,3.54A4.14,4.14,0,0,1,11.81,87.3Zm11.74.2c0,.36,0,.7-.35.94l-7.55,5V85.07c0-.32-.06-.64.28-.87l7.62-5.06v4C23.55,84.57,23.54,86,23.55,87.5ZM22,75.5l-7.92,5.29a.55.55,0,0,1-.71,0L5.46,75.5l7.81-5.2a.67.67,0,0,1,.87,0C16.71,72,19.31,73.72,22,75.5ZM14.15,16a.59.59,0,0,1-.78,0c-2.58-1.74-5.18-3.46-7.9-5.27l8.25-5.51L22,10.77C19.28,12.57,16.71,14.28,14.15,16Zm9.39,7.05a.64.64,0,0,1-.26.59l-7.63,5.08V26c0-1.89,0-3.77,0-5.66,0-.31-.1-.65.25-.88l7.64-5.09Zm72.55-7.62c0,2.44,0,4.88,0,7.32,0,.31.1.65-.25.88L88.24,28.7c0-3,0-5.83,0-8.62a.85.85,0,0,1,.49-.76l7.22-4.8C96.24,14.8,96.09,15.14,96.09,15.43ZM84.35,28.71c-2.29-1.52-4.36-3-6.51-4.29a2.55,2.55,0,0,1-1.42-2.64c.12-2.37,0-4.75,0-7.08.34-.21.5,0,.67.14l6.65,4.43c.34.23.6.42.59.91C84.34,22.94,84.35,25.7,84.35,28.71Zm0,64.51c-.32.15-.5-.11-.69-.24q-3.3-2.17-6.58-4.38c-.28-.19-.63-.32-.63-.78,0-2.82,0-5.64,0-8.69,2.64,1.76,5.06,3.39,7.5,5a.93.93,0,0,1,.4.91Q84.35,89.13,84.35,93.22Zm11.76-5.48a.85.85,0,0,1-.46.77c-2.41,1.59-4.81,3.2-7.21,4.79-.32-.13-.19-.4-.19-.59q0-3.81,0-7.62c0-.35,0-.69.33-.94,2.46-1.62,4.91-3.26,7.53-5C96.1,82.15,96.09,84.94,96.11,87.74ZM94.55,75.5l-7.88,5.26a.59.59,0,0,1-.78,0L78,75.5l7.9-5.27c.31-.22.53-.11.79.06ZM86.88,15.88a.83.83,0,0,1-1.11.07c-2.52-1.72-5.07-3.4-7.74-5.18l8.25-5.51,8.09,5.39c0,.36-.27.41-.44.52C91.58,12.74,89.22,14.3,86.88,15.88Z"/></svg>