<svg id="design" xmlns="http://www.w3.org/2000/svg" viewBox="0 0 100 100"><defs><style>.cls-1{fill:#fbb040;}.cls-2{fill:#222;}</style></defs><path class="cls-1" d="M97.25,100H28.78c-2.1-.8-2.79-2.31-2.78-4.54.07-15.8,0-31.6,0-47.4a3.46,3.46,0,0,1,3.51-3.8H50.47c2.56,0,3.93,1,4.77,3.38.53,1.55,1.06,3.1,1.55,4.66a.87.87,0,0,0,1,.73l25.41,0a16,16,0,0,0,3.66,0h6c1.2.19,2.4,0,3.6.1,2.27.24,3.55,1.45,3.55,3.47q0,20,0,39.95a3.42,3.42,0,0,1-1,2.36A6.17,6.17,0,0,1,97.25,100Z"/><path class="cls-2" d="M73.33,95.48a1.78,1.78,0,0,1-1.77-2.31c.61-3,1.27-6.09,1.91-9.13q1.64-7.65,3.26-15.29c.28-1.32.83-1.92,1.82-2A1.77,1.77,0,0,1,80.43,69c-.55,2.81-1.16,5.61-1.76,8.41Q77,85.47,75.24,93.51C75,94.85,74.36,95.47,73.33,95.48Z"/><path class="cls-2" d="M62.93,81.11l4.53,4.53c.26.26.53.51.76.79A1.83,1.83,0,0,1,65.59,89c-1.17-1.12-2.29-2.28-3.44-3.43-1-1-1.95-1.93-2.91-2.91a1.87,1.87,0,0,1-.05-3q3.11-3.12,6.22-6.21A1.84,1.84,0,1,1,68,76.05C66.36,77.72,64.68,79.36,62.93,81.11Z"/><path class="cls-2" d="M89.07,81.12l-5-5c-1-1-1-2-.28-2.81s1.91-.75,2.89.23q3,3,6,6a1.88,1.88,0,0,1,0,3q-3,3.06-6.08,6.09a1.87,1.87,0,1,1-2.58-2.63Z"/><path class="cls-2" d="M0,84.18c.37-.4.32-1,.46-1.43a14.45,14.45,0,0,1,3.87-6.43q8.48-8.43,16.91-16.9Q33.42,47.24,45.61,35.08A1.44,1.44,0,0,0,46,33.54,27.34,27.34,0,0,1,68.27.35c.49-.08,1,0,1.46-.35H75.2c0,.15.17.16.3.18a26.41,26.41,0,0,1,9,2.51c2,1,2.29,2.29.66,3.91q-7.62,7.62-15.26,15.24a1.55,1.55,0,0,0-.54,1.52c.32,1.92.57,3.86.82,5.79a.72.72,0,0,0,.74.72c1.9.25,3.8.5,5.69.8a1.64,1.64,0,0,0,1.62-.54C83.26,25,88.38,19.91,93.48,14.8c1.52-1.51,2.86-1.27,3.8.68a28.73,28.73,0,0,1,2,5.58,25.3,25.3,0,0,0,.73,3.35v5.86a20.45,20.45,0,0,0-.73,3.37,27.35,27.35,0,0,1-28,21A22.11,22.11,0,0,1,66.55,54a1.52,1.52,0,0,0-1.7.47Q44.5,74.87,24.1,95.26a14.4,14.4,0,0,1-8.57,4.59s-.07.1-.1.15H11.52c-.14-.35-.5-.24-.75-.31A13.58,13.58,0,0,1,.3,89.23c-.06-.25,0-.6-.3-.75ZM80.77,5.39A23.35,23.35,0,0,0,50.12,33.66a3,3,0,0,1-.86,3.3Q29.49,56.67,9.76,76.44c-1.1,1.1-2.23,2.18-3.29,3.33A9.68,9.68,0,0,0,5.16,91.09c3.26,5.79,10.85,6.7,15.7,1.85Q42,71.82,63.1,50.68a2.78,2.78,0,0,1,3.13-.83,22.28,22.28,0,0,0,12,.24A23.42,23.42,0,0,0,96,29.15a22.48,22.48,0,0,0-1.41-9.92c-.33.3-.59.53-.84.78-4.62,4.63-9.26,9.24-13.86,13.89a2.69,2.69,0,0,1-2.45.86c-3-.46-6-.88-9.07-1.33a1.86,1.86,0,0,1-1.83-1.82c-.46-3-.88-6-1.34-9.06A2.74,2.74,0,0,1,66.15,20C70.77,15.44,75.36,10.83,80,6.23Z"/></svg>