<svg id="design" xmlns="http://www.w3.org/2000/svg" viewBox="0 0 100 100"><defs><style>.cls-1{fill:#54a4f3;}.cls-2{fill:#222;}</style></defs><polygon class="cls-1" points="13.47 98.28 2 90.75 2 76.7 13.47 84.36 13.47 98.28"/><path class="cls-2" d="M2,78.53A2,2,0,0,1,.9,74.87l11.27-7.46a2,2,0,0,1,2.21,3.34L3.1,78.2A1.94,1.94,0,0,1,2,78.53Z"/><path class="cls-2" d="M24.8,78.53a1.94,1.94,0,0,1-1.1-.33L12.43,70.75a2,2,0,0,1,2.21-3.34l11.27,7.46a2,2,0,0,1-1.11,3.66Z"/><path class="cls-2" d="M13.27,86a2,2,0,0,1-1.1-.33L.9,78.2a2,2,0,1,1,2.2-3.33l11.28,7.45A2,2,0,0,1,13.27,86Z"/><path class="cls-2" d="M13.54,86a2,2,0,0,1-1.11-3.67L23.7,74.87a2,2,0,0,1,2.21,3.33L14.64,85.66A2,2,0,0,1,13.54,86Z"/><path class="cls-2" d="M13.27,100a2,2,0,0,1-1.1-.33L.9,92.21a2,2,0,1,1,2.2-3.33l11.28,7.45A2,2,0,0,1,13.27,100Z"/><path class="cls-2" d="M13.54,100a2,2,0,0,1-1.11-3.67L23.7,88.88a2,2,0,0,1,2.21,3.33L14.64,99.67A2,2,0,0,1,13.54,100Z"/><path class="cls-2" d="M2,92.54a2,2,0,0,1-2-2v-14a2,2,0,0,1,4,0v14A2,2,0,0,1,2,92.54Z"/><path class="cls-2" d="M24.91,92.54a2,2,0,0,1-2-2v-14a2,2,0,0,1,4,0v14A2,2,0,0,1,24.91,92.54Z"/><polygon class="cls-1" points="50.01 98.28 38.54 90.75 38.54 76.7 50.01 84.36 50.01 98.28"/><path class="cls-2" d="M38.55,78.53a2,2,0,0,1-1.11-3.66l11.27-7.46a2,2,0,0,1,2.21,3.34L39.65,78.2A2,2,0,0,1,38.55,78.53Z"/><path class="cls-2" d="M61.35,78.53a1.94,1.94,0,0,1-1.1-.33L49,70.75a2,2,0,0,1,2.21-3.34l11.27,7.46a2,2,0,0,1-1.1,3.66Z"/><path class="cls-2" d="M49.81,86a2,2,0,0,1-1.1-.33L37.44,78.2a2,2,0,1,1,2.21-3.33l11.27,7.45A2,2,0,0,1,49.81,86Z"/><path class="cls-2" d="M50.08,86A2,2,0,0,1,49,82.32l11.28-7.45a2,2,0,1,1,2.2,3.33L51.18,85.66A2,2,0,0,1,50.08,86Z"/><path class="cls-2" d="M49.81,100a2,2,0,0,1-1.1-.33L37.44,92.21a2,2,0,1,1,2.21-3.33l11.27,7.45A2,2,0,0,1,49.81,100Z"/><path class="cls-2" d="M50.08,100A2,2,0,0,1,49,96.33l11.28-7.45a2,2,0,1,1,2.2,3.33L51.18,99.67A2,2,0,0,1,50.08,100Z"/><path class="cls-2" d="M38.54,92.54a2,2,0,0,1-2-2v-14a2,2,0,0,1,4,0v14A2,2,0,0,1,38.54,92.54Z"/><path class="cls-2" d="M61.46,92.54a2,2,0,0,1-2-2v-14a2,2,0,0,1,4,0v14A2,2,0,0,1,61.46,92.54Z"/><polygon class="cls-1" points="86.56 98.28 75.09 90.75 75.09 76.7 86.56 84.36 86.56 98.28"/><path class="cls-2" d="M75.09,78.53A2,2,0,0,1,74,74.87l11.28-7.46a2,2,0,1,1,2.2,3.34L76.19,78.2A1.94,1.94,0,0,1,75.09,78.53Z"/><path class="cls-2" d="M97.89,78.53a1.94,1.94,0,0,1-1.1-.33L85.52,70.75a2,2,0,1,1,2.21-3.34L99,74.87a2,2,0,0,1-1.11,3.66Z"/><path class="cls-2" d="M86.36,86a2,2,0,0,1-1.1-.33L74,78.2a2,2,0,1,1,2.21-3.33l11.27,7.45A2,2,0,0,1,86.36,86Z"/><path class="cls-2" d="M86.62,86a2,2,0,0,1-1.1-3.67l11.27-7.45A2,2,0,0,1,99,78.2L87.73,85.66A2.05,2.05,0,0,1,86.62,86Z"/><path class="cls-2" d="M86.36,100a2,2,0,0,1-1.1-.33L74,92.21a2,2,0,1,1,2.21-3.33l11.27,7.45a2,2,0,0,1-1.1,3.67Z"/><path class="cls-2" d="M86.62,100A2,2,0,0,1,85,99.1a2,2,0,0,1,.57-2.77l11.27-7.45A2,2,0,0,1,99,92.21L87.73,99.67A2.05,2.05,0,0,1,86.62,100Z"/><path class="cls-2" d="M75.09,92.54a2,2,0,0,1-2-2v-14a2,2,0,0,1,4,0v14A2,2,0,0,1,75.09,92.54Z"/><path class="cls-2" d="M98,92.54a2,2,0,0,1-2-2v-14a2,2,0,0,1,4,0v14A2,2,0,0,1,98,92.54Z"/><path class="cls-2" d="M73.21,85.54h-10a2,2,0,1,1,0-4h10a2,2,0,0,1,0,4Z"/><path class="cls-2" d="M36.7,85.54h-10a2,2,0,0,1,0-4h10a2,2,0,0,1,0,4Z"/><path class="cls-1" d="M97.93,61.32H2.07A2.07,2.07,0,0,1,.33,58.13l18-23a2.06,2.06,0,0,1,1.74-1H79.9a2.06,2.06,0,0,1,1.74,1l18,23A2.07,2.07,0,0,1,97.93,61.32Z"/><path class="cls-2" d="M50,49.16a24.5,24.5,0,1,1,24.5-24.5A24.53,24.53,0,0,1,50,49.16Zm0-45a20.5,20.5,0,1,0,20.5,20.5A20.53,20.53,0,0,0,50,4.16Z"/><path class="cls-2" d="M58.39,14.14H55.31V11.75a1.09,1.09,0,0,0-1.09-1.09h-1.3a1.09,1.09,0,0,0-1.09,1.09v2.33H48.29V11.75a1.09,1.09,0,0,0-1.09-1.09H45.84a1.09,1.09,0,0,0-1.09,1.09v2.39H41.66a2.18,2.18,0,0,0-2.18,2.18v3.1H37.09A1.09,1.09,0,0,0,36,20.51v1.35A1.09,1.09,0,0,0,37.09,23h2.39v3.48H37.15a1.09,1.09,0,0,0-1.09,1.09v1.36A1.09,1.09,0,0,0,37.15,30h2.39v3.09a2.17,2.17,0,0,0,2.18,2.18h3.09v2.33a1.09,1.09,0,0,0,1.09,1.09h1.36a1.09,1.09,0,0,0,1.09-1.09V35.24h3.48v2.33a1.09,1.09,0,0,0,1.09,1.09h1.3a1.09,1.09,0,0,0,1.09-1.09V35.18H58.4A2.17,2.17,0,0,0,60.58,33V29.91h2.33A1.09,1.09,0,0,0,64,28.82V27.46a1.09,1.09,0,0,0-1.09-1.09H60.58V22.83h2.33A1.09,1.09,0,0,0,64,21.74V20.45a1.09,1.09,0,0,0-1.09-1.09H60.52c0-1,0-2,.06-3A2.19,2.19,0,0,0,58.39,14.14ZM57,31.65h-14v-14H57Z"/></svg>