<svg id="Layer_1" data-name="Layer 1" xmlns="http://www.w3.org/2000/svg" xmlns:xlink="http://www.w3.org/1999/xlink" viewBox="0 0 250 250"><defs><style>.cls-1{fill:url(#linear-gradient);}.cls-2{fill:#fff;}</style><linearGradient id="linear-gradient" x1="125" y1="200" x2="125" y2="450" gradientTransform="matrix(1, 0, 0, -1, 0, 450)" gradientUnits="userSpaceOnUse"><stop offset="0" stop-color="#fbb040"/><stop offset="1" stop-color="#ed8b00"/></linearGradient></defs><circle class="cls-1" cx="125" cy="125" r="125"/><path class="cls-2" d="M41.86,172.17V148.46a6.15,6.15,0,0,0,.29-.89c1.94-12.71,8.79-21.72,20.44-27.08,1.58-.73,3.27-1.24,5-1.9-.46-.51-.81-.91-1.16-1.32A28.9,28.9,0,0,1,59.2,94c2.32-18.65,20.22-30.27,38.33-25a1.78,1.78,0,0,0,2.09-.57,35,35,0,0,1,50.75,0,1.89,1.89,0,0,0,2.25.52A27.21,27.21,0,0,1,165.93,68c11.44,2.18,19.52,8.66,23.36,19.68s1.55,21.09-6,29.94c-.27.31-.5.64-.82,1l1.51.5c11.93,4,19.6,12,23.09,24.1.49,1.69.75,3.45,1.12,5.18v23.71h-27V182.5H68.84V172.17ZM125,118.33A25.54,25.54,0,1,0,99.43,92.91,25.59,25.59,0,0,0,125,118.33Zm-46.44,54.4c.5.06.71.11.92.11,7.79,0,15.57,0,23.36,0,1.1,0,1.34-.62,1.66-1.38q5.51-13.14,11-26.28a2.2,2.2,0,0,0-.28-2.5c-3.18-4.3-6.33-8.63-9.39-13a2.1,2.1,0,0,0-2.55-1c-11.46,2.75-19.28,9.6-23.14,20.75C77.57,157,79,164.87,78.58,172.73Zm92.76.12c0-5.06.15-9.92,0-14.76a30.9,30.9,0,0,0-24.44-29.35,2.31,2.31,0,0,0-2.82,1.06q-4.49,6.47-9.21,12.75a2.55,2.55,0,0,0-.28,2.93c3.36,7.9,6.65,15.82,10,23.74,1.52,3.63,1.52,3.63,5.49,3.63Zm-14.26-95q8.32,20.28-4.9,37.58c7.2,4,16.89,2.47,23-3.54a20.08,20.08,0,0,0-18.15-34Zm-64.16,0a20.08,20.08,0,0,0-17.09,35c6.94,6,16.68,5.82,21.94,2.51Q84.6,98.1,92.92,77.87Zm105.46,84.51c0-3.84.05-7.61,0-11.37a18.73,18.73,0,0,0-.49-4c-3.62-15.16-16.34-21.35-31.51-19.35,10.6,9.19,15.31,20.84,14.72,34.74Zm-129.48,0a44.78,44.78,0,0,1,3.21-19.22,42.06,42.06,0,0,1,11.83-15.75c-3.28,0-6-.09-8.78,0a24.49,24.49,0,0,0-22.62,17.83c-1.6,5.63-.66,11.36-1,17.12ZM125,147.82l-10.46,25h20.92Zm-8.11-19.65a9,9,0,0,0,.54.93c2,2.81,4,5.62,6.07,8.41.93,1.29,2.09,1.25,3.07-.09q3-4.06,5.88-8.14a9.41,9.41,0,0,0,.6-1.11Z"/></svg>