<svg id="Layer_1" data-name="Layer 1" xmlns="http://www.w3.org/2000/svg" xmlns:xlink="http://www.w3.org/1999/xlink" viewBox="0 0 250 250"><defs><style>.cls-1{fill:url(#linear-gradient);}.cls-2{fill:#fff;}</style><linearGradient id="linear-gradient" x1="125" y1="50" x2="125" y2="-200" gradientTransform="translate(0 200)" gradientUnits="userSpaceOnUse"><stop offset="0" stop-color="#fbb040"/><stop offset="1" stop-color="#ed8b00"/></linearGradient></defs><circle class="cls-1" cx="125" cy="125" r="125"/><path class="cls-2" d="M205.92,106.11v.32c-2,1.95-4,3.84-5.93,5.88a4,4,0,0,0-1,2.44c-.08,6.31,0,12.64-.09,19a3.94,3.94,0,0,1-1,2.43c-2.75,2.9-5.61,5.68-8.44,8.51,4.68,5.72,5.81,11.86,2,18.19-4,6.66-10.27,8.39-17.57,6.58-3.86,8.53-10.3,11.72-19.38,9.64a15,15,0,0,1-7.63,8.73,15.44,15.44,0,0,1-11.48.81c-.13.24-.22.36-.28.5-4.65,10.82-16.86,13.23-25.17,4.94q-26.72-26.68-53.41-53.39a3.3,3.3,0,0,1-1.1-2.6c0-6.38,0-12.75,0-19.12a2.62,2.62,0,0,0-.49-1.71c-3.58-3.63-7.23-7.2-10.85-10.79v-.32c.43-.36.89-.7,1.29-1.1Q67.5,82.9,89.59,60.76a8.43,8.43,0,0,0,1-1.76c2.44,2.46,4.31,4.45,6.32,6.3a4,4,0,0,0,2.44,1c5,.1,10,.3,15,0,3.88-.25,6.92.63,9.25,3.85a33.78,33.78,0,0,0,3,3.29,22.35,22.35,0,0,1,3-.46c6.11,0,12.21,0,18.32,0a4.09,4.09,0,0,0,3.3-1.35c3.24-3.36,6.58-6.64,10.23-10.28a11.55,11.55,0,0,0,1.06,1.55q21,21.08,42.1,42.12C205,105.41,205.49,105.75,205.92,106.11Zm-66.79,16.76a10,10,0,0,0,1,1.41q16.92,17,33.85,33.88a15.38,15.38,0,0,0,1.38,1.3,5.26,5.26,0,0,0,5.8.53,5.15,5.15,0,0,0,2.95-4.86,6.18,6.18,0,0,0-2.26-4.51q-20.51-20.49-41-41c-1.19-1.19-2.27-2.48-3.61-4-.57.72-.86,1.17-1.23,1.54-3.64,3.66-7.27,7.33-11,10.94-4.27,4.19-9.37,5.59-15.1,3.89a14.84,14.84,0,0,1-6.41-24.58C108.65,92.12,114,87,119.17,81.77c.4-.4.78-.82,1.33-1.41-1.24-1.19-2.46-2.26-3.56-3.45a3.22,3.22,0,0,0-2.64-1.06c-5.37.05-10.75-.13-16.12.08-2.88.11-5.26-.34-7-2.81,0-.06-.18-.06-.08,0L57.68,106.54c2,2,4.21,4.08,6.26,6.26a3.76,3.76,0,0,1,1,2.3c.07,6.32.06,12.65,0,19a3.31,3.31,0,0,0,1,2.62c6.55,6.49,13,13,19.57,19.54q15.58,15.59,31.17,31.19a5.76,5.76,0,0,0,4.77,2,5.16,5.16,0,0,0,4.63-3.52,5.32,5.32,0,0,0-1.43-5.93q-8.88-8.9-17.77-17.77c-1.23-1.22-2.53-2.37-3.64-3.4l7-7a9.07,9.07,0,0,0,.92,1.31q12.17,12.19,24.35,24.37a12.3,12.3,0,0,0,1.52,1.37,5.41,5.41,0,0,0,8.33-2.8,5.62,5.62,0,0,0-1.73-5.87q-12.45-12.37-24.82-24.81c-.4-.4-.78-.82-1-1.11l6.67-6.75c2.24,2.25,4.53,4.56,6.83,6.86q12,12,24,24a5.42,5.42,0,0,0,6.63,1.25,5.12,5.12,0,0,0,2.77-5.68,7.73,7.73,0,0,0-2-3.46c-9.78-9.89-19.63-19.7-29.47-29.53A8.94,8.94,0,0,0,132,130Zm-1.72-30.52,45.48,45.56c1.8-1.85,3.57-3.73,5.43-5.51a3.4,3.4,0,0,0,1.17-2.74c-.07-5.48.09-11-.08-16.43-.09-2.64.26-4.86,2.58-6.43.16-.11.24-.33.21-.29L161,75.29c-2,2-4.07,4.17-6.26,6.22a3.43,3.43,0,0,1-2.17.89c-6.37.07-12.74,0-19.11.09a3.86,3.86,0,0,0-2.44,1c-3.38,3.24-6.66,6.59-10,9.91-3.5,3.5-7,7-10.49,10.51a5.31,5.31,0,0,0-1,6.39,5.12,5.12,0,0,0,5.83,2.73,7.83,7.83,0,0,0,3.31-2C124.84,105,131,98.81,137.41,92.35Z"/></svg>