<svg xmlns="http://www.w3.org/2000/svg" viewBox="0 0 295.9 325.1"><defs><style>.cls-1{fill:#32303d;}.cls-2{fill:#95ce21;}.cls-3{fill:#fff;}.cls-4{isolation:isolate;}</style></defs><title>aciety-top-solidity-development-2024</title><g id="Layer_2" data-name="Layer 2"><g id="Layer_1-2" data-name="Layer 1"><path class="cls-1" d="M.5,81.2,147.9,0,295.3,81.2l-.1.2h.7v162h-1.1l.2.4L147.7,325.1.5,243.8l.2-.4H0V81.4H.6l-.1-.2Z"/><path class="cls-2" d="M13.8,88,147.9,13.5,281.9,88l-.1.2h.6V236.9h-1l.1.3-134,74.6-134-74.6.1-.3H13V88.1h.5l.3-.1Z"/><path class="cls-1" d="M26,94.6,147.8,26.9,269.6,94.6l-.1.2h.6v33.3H25.6V94.8h.5l-.1-.2ZM26,228l121.8,67.7L269.6,228l-.1-.2h.6V194.5H25.6v33.3h.5l-.1.2Z"/><path class="cls-3" d="M162.9,60.4l-15-15.1L137,56.3,124.4,68.9l5.8,5.8,3.2-8.5h6l-4,10.8c-3-.5-5.2-1.3-5.2-2.3V78c0,1.6,7.3,3.2,17.8,3.2s17.8-1.6,17.8-3.2V74.7c0,1-2.2,1.8-5.2,2.3l-2.7-7.4h5.9l1.9,5.1,5.7-5.8Zm-5.5,17c-1.8.2-3.7.3-5.6.4l-3.9-11.3-2,5.6-2,5.7c-1.8-.1-3.7-.2-5.5-.4l7-18.5h5.1l2.3,6.2Z"/><path class="cls-3" d="M119.5,106l-1.4-4.9h-7l-1.4,4.9h-4.4l6.6-20.6h5.3l6.7,20.6Zm-2.4-8.6-1.3-4.5c-.1-.1-.1-.5-.3-.8s-.2-.8-.3-1.3a7,7,0,0,1-.3-1.4,10.38,10.38,0,0,0-.3-1.2,1.7,1.7,0,0,0-.1.7c-.1.3-.1.6-.2.9a3.18,3.18,0,0,1-.3.9,3.18,3.18,0,0,1-.3.9,6.36,6.36,0,0,1-.2.7.9.9,0,0,0-.1.5l-1.3,4.5Zm15.5,8.9a7,7,0,0,1-3-.5,5.93,5.93,0,0,1-2.3-1.4,8.74,8.74,0,0,1-1.5-2.5,12.72,12.72,0,0,1-.5-3.7,13.7,13.7,0,0,1,.5-3.9,5.26,5.26,0,0,1,1.5-2.5,5.94,5.94,0,0,1,2.3-1.4,9.48,9.48,0,0,1,3-.4,9.86,9.86,0,0,1,2.4.3,11.26,11.26,0,0,1,2.2.8L136,94.4a13.35,13.35,0,0,0-1.8-.7,4.53,4.53,0,0,0-1.6-.3,2.3,2.3,0,0,0-2.2,1.2,6.78,6.78,0,0,0-.7,3.5,6.55,6.55,0,0,0,.7,3.5,2.61,2.61,0,0,0,2.2,1.2,7.32,7.32,0,0,0,2.2-.3,16.67,16.67,0,0,0,2-.8v3.6a4.67,4.67,0,0,0-1,.5c-.3.1-.7.2-1,.3s-.7.1-1,.2Zm12-.3h-4.2V90.3h4.2Zm11.3.3a7.77,7.77,0,0,1-3.1-.5,5.45,5.45,0,0,1-2.4-1.5,8.94,8.94,0,0,1-1.6-2.5,9.56,9.56,0,0,1-.5-3.5,12.5,12.5,0,0,1,.5-3.6,7.22,7.22,0,0,1,1.4-2.6,6,6,0,0,1,2.2-1.6,8.81,8.81,0,0,1,2.9-.5,6.36,6.36,0,0,1,2.8.5,4.35,4.35,0,0,1,2.1,1.4,6.11,6.11,0,0,1,1.3,2.2,9.59,9.59,0,0,1,.5,3.1v2.1h-9.5a3.81,3.81,0,0,0,.3,1.6,3.46,3.46,0,0,0,.7,1.2,2.59,2.59,0,0,0,1.1.7,3.65,3.65,0,0,0,1.5.3,5.28,5.28,0,0,0,1.3-.1c.4-.1.8-.1,1.2-.2a5.64,5.64,0,0,0,1.2-.4,6.12,6.12,0,0,0,1.2-.5v3.3c-.4.2-.7.3-1.1.5a2.38,2.38,0,0,1-1.2.3c-.4.1-.9.1-1.3.2A6.62,6.62,0,0,1,155.9,106.3ZM155.4,93a2.93,2.93,0,0,0-1.9.8,4.11,4.11,0,0,0-.9,2.5H158a5.06,5.06,0,0,0-.2-1.3,3.13,3.13,0,0,0-.5-1,2.7,2.7,0,0,0-.8-.7A2.9,2.9,0,0,0,155.4,93Zm16.6,9.9c.4,0,.8-.1,1.2-.1l1.1-.3v3.2a5.27,5.27,0,0,1-1.5.5,11.24,11.24,0,0,1-2,.2,11.08,11.08,0,0,1-1.9-.2,3.46,3.46,0,0,1-1.6-.8,4.88,4.88,0,0,1-1-1.6,6.36,6.36,0,0,1-.3-2.5V93.6h-2V91.8l2.4-1.4,1.2-3.3h2.7v3.3h3.8v3.2h-3.8v7.5a1.62,1.62,0,0,0,.5,1.4A2.14,2.14,0,0,0,172,102.9Zm3.3-12.6H180l2.5,8.8a13.19,13.19,0,0,1,.4,3.1h.1c0-.2.1-.5.1-.7s.1-.5.1-.8a2.2,2.2,0,0,0,.1-.8,6.36,6.36,0,0,1,.2-.7l2.4-8.8h4.7l-6.1,17.7a7.71,7.71,0,0,1-2.4,3.7,5.67,5.67,0,0,1-3.7,1.2,5.28,5.28,0,0,1-1.3-.1,3.09,3.09,0,0,0-.9-.1v-3.4a1.48,1.48,0,0,0,.7.1,2.77,2.77,0,0,0,.9.1,3.09,3.09,0,0,0,1.1-.2,2.18,2.18,0,0,0,.8-.5,5.54,5.54,0,0,0,.6-.8c.1-.3.3-.7.4-1l.3-.8Z"/><g class="cls-4"><path class="cls-1" d="M46.32,152.83a2.53,2.53,0,0,0-.14-.87,1.68,1.68,0,0,0-.54-.72,5,5,0,0,0-1.1-.65,17.4,17.4,0,0,0-1.82-.67,22.24,22.24,0,0,1-2.39-.91,8.79,8.79,0,0,1-2-1.2A5.33,5.33,0,0,1,37,146.22a4.35,4.35,0,0,1-.49-2.11A4.49,4.49,0,0,1,37,142a4.75,4.75,0,0,1,1.41-1.63,6.91,6.91,0,0,1,2.16-1,9.54,9.54,0,0,1,2.75-.37,8.66,8.66,0,0,1,2.79.43,6.4,6.4,0,0,1,2.15,1.19,5.24,5.24,0,0,1,1.37,1.81,5.4,5.4,0,0,1,.48,2.29H46.33a3.09,3.09,0,0,0-.18-1.08,2.2,2.2,0,0,0-.57-.85,2.63,2.63,0,0,0-1-.55,4.15,4.15,0,0,0-1.35-.2,4.55,4.55,0,0,0-1.3.17,2.66,2.66,0,0,0-.91.46,1.91,1.91,0,0,0-.55.69,2,2,0,0,0-.18.84,1.8,1.8,0,0,0,.93,1.53A10.52,10.52,0,0,0,44,146.8a18,18,0,0,1,2.66,1,7.93,7.93,0,0,1,1.92,1.29,4.94,4.94,0,0,1,1.16,1.63,5.05,5.05,0,0,1,.39,2,4.79,4.79,0,0,1-.48,2.17,4.49,4.49,0,0,1-1.35,1.61,6.4,6.4,0,0,1-2.11,1,10.14,10.14,0,0,1-2.76.35,10.7,10.7,0,0,1-1.83-.16,8.85,8.85,0,0,1-1.75-.49,7.58,7.58,0,0,1-1.54-.83,5.7,5.7,0,0,1-1.24-1.17,5.25,5.25,0,0,1-.83-1.53,5.74,5.74,0,0,1-.3-1.9h3.82a3.41,3.41,0,0,0,.27,1.42,2.42,2.42,0,0,0,.74.95,3.08,3.08,0,0,0,1.15.53,6.28,6.28,0,0,0,1.5.17,4.59,4.59,0,0,0,1.28-.16,2.61,2.61,0,0,0,.9-.44,1.74,1.74,0,0,0,.53-.67A2,2,0,0,0,46.32,152.83Z"/><path class="cls-1" d="M51.91,150.68a8.68,8.68,0,0,1,.43-2.78,6.37,6.37,0,0,1,1.26-2.21,5.78,5.78,0,0,1,2-1.47,6.79,6.79,0,0,1,2.76-.53,6.87,6.87,0,0,1,2.78.53,5.83,5.83,0,0,1,2.05,1.47,6.3,6.3,0,0,1,1.26,2.21,8.65,8.65,0,0,1,.43,2.78V151a8.65,8.65,0,0,1-.43,2.79,6.34,6.34,0,0,1-1.26,2.21,5.8,5.8,0,0,1-2,1.46,7.54,7.54,0,0,1-5.54,0,5.78,5.78,0,0,1-2-1.46,6.34,6.34,0,0,1-1.26-2.21,8.67,8.67,0,0,1-.43-2.79Zm3.67.27a7.76,7.76,0,0,0,.15,1.57,3.86,3.86,0,0,0,.49,1.28,2.52,2.52,0,0,0,.88.86,2.57,2.57,0,0,0,1.33.32,2.52,2.52,0,0,0,1.3-.32,2.59,2.59,0,0,0,.88-.86,3.78,3.78,0,0,0,.5-1.28,7.76,7.76,0,0,0,.15-1.57v-.27a7.53,7.53,0,0,0-.15-1.54,3.94,3.94,0,0,0-.5-1.28,2.58,2.58,0,0,0-.89-.87,2.53,2.53,0,0,0-1.32-.32,2.47,2.47,0,0,0-1.3.32,2.54,2.54,0,0,0-.88.88,4,4,0,0,0-.49,1.28,7.53,7.53,0,0,0-.15,1.54Z"/><path class="cls-1" d="M71.05,157.68H67.37v-19.5h3.68Z"/><path class="cls-1" d="M74,140.39A1.81,1.81,0,0,1,74.6,139a2.07,2.07,0,0,1,1.5-.53,2.46,2.46,0,0,1,.85.14,1.85,1.85,0,0,1,.65.39,1.76,1.76,0,0,1,.41.6,2,2,0,0,1,.15.76,2,2,0,0,1-.15.77,1.76,1.76,0,0,1-.41.6,1.85,1.85,0,0,1-.65.39,2.66,2.66,0,0,1-1.7,0,1.85,1.85,0,0,1-.65-.39,1.74,1.74,0,0,1-.41-.6A2,2,0,0,1,74,140.39Zm3.9,17.29H74.26V143.94h3.68Z"/><path class="cls-1" d="M80.39,150.71a10.6,10.6,0,0,1,.36-2.86,6.75,6.75,0,0,1,1-2.22,4.75,4.75,0,0,1,1.69-1.43,5,5,0,0,1,2.29-.51,4.27,4.27,0,0,1,1.87.39,4.48,4.48,0,0,1,1.44,1.1v-7h3.68v19.5H89.46l-.18-1.46a4.69,4.69,0,0,1-1.51,1.26,4.3,4.3,0,0,1-2,.45,4.77,4.77,0,0,1-2.27-.53A4.93,4.93,0,0,1,81.8,156a6.77,6.77,0,0,1-1-2.2,10.13,10.13,0,0,1-.36-2.77Zm3.67.27a8.27,8.27,0,0,0,.14,1.56,4,4,0,0,0,.45,1.26,2.37,2.37,0,0,0,.81.85,2.28,2.28,0,0,0,1.22.31,2.68,2.68,0,0,0,1.48-.38,2.57,2.57,0,0,0,.92-1.05v-5.42a2.51,2.51,0,0,0-.92-1.06,2.67,2.67,0,0,0-1.45-.37,2.31,2.31,0,0,0-1.23.31,2.34,2.34,0,0,0-.82.86,4.21,4.21,0,0,0-.46,1.28,8.13,8.13,0,0,0-.15,1.59Z"/><path class="cls-1" d="M95.59,140.39a1.81,1.81,0,0,1,.55-1.36,2.07,2.07,0,0,1,1.5-.53,2.46,2.46,0,0,1,.85.14,1.85,1.85,0,0,1,.65.39,1.76,1.76,0,0,1,.41.6,2,2,0,0,1,.15.76,2,2,0,0,1-.15.77,1.76,1.76,0,0,1-.41.6,1.85,1.85,0,0,1-.65.39,2.66,2.66,0,0,1-1.7,0,1.85,1.85,0,0,1-.65-.39,1.74,1.74,0,0,1-.41-.6A2,2,0,0,1,95.59,140.39Zm3.9,17.29H95.81V143.94h3.68Z"/><path class="cls-1" d="M106.9,140.57v3.38h2.35v2.69H106.9v6.86a2.41,2.41,0,0,0,.09.71.9.9,0,0,0,.71.65,3,3,0,0,0,.62.06l.6,0,.48-.06v2.78a8.31,8.31,0,0,1-1,.23,7,7,0,0,1-1.23.1,5.52,5.52,0,0,1-1.62-.22,3.11,3.11,0,0,1-1.24-.7,3.16,3.16,0,0,1-.79-1.26,5.54,5.54,0,0,1-.28-1.87v-7.25h-2v-2.69h2v-3.38Z"/><path class="cls-1" d="M116.42,152.49l2.54-8.54h3.94l-5.5,15.79a12.06,12.06,0,0,1-.49,1.13,4.45,4.45,0,0,1-.81,1.14,4.16,4.16,0,0,1-1.26.88,4.34,4.34,0,0,1-1.84.35l-.46,0-.39,0-.37-.07-.4-.11v-2.78h.56a4.58,4.58,0,0,0,.93-.08,1.93,1.93,0,0,0,.67-.27,1.67,1.67,0,0,0,.47-.46,3,3,0,0,0,.33-.66l.39-1-4.81-13.77h3.95Z"/><path class="cls-1" d="M131,150.16a19.51,19.51,0,0,1,.27-3.36,18.6,18.6,0,0,1,.74-2.91,14.71,14.71,0,0,1,1.08-2.44,13.48,13.48,0,0,1,1.33-1.95,9.65,9.65,0,0,1,1.45-1.44,7,7,0,0,1,1.46-.91l.71,2a7.36,7.36,0,0,0-1.43,1.45,9.94,9.94,0,0,0-1.26,2.26,16.11,16.11,0,0,0-.9,3.15,22.37,22.37,0,0,0-.34,4.13v.34a22.34,22.34,0,0,0,.34,4.13,16.25,16.25,0,0,0,.9,3.16A10.06,10.06,0,0,0,136.6,160a7.62,7.62,0,0,0,1.43,1.47l-.71,1.94a7.07,7.07,0,0,1-1.46-.91,9.75,9.75,0,0,1-1.45-1.44,13.43,13.43,0,0,1-1.33-1.95,14.64,14.64,0,0,1-1.08-2.44,18.58,18.58,0,0,1-.74-2.91,19.53,19.53,0,0,1-.27-3.36Z"/><path class="cls-1" d="M151.31,149.67H144v5h8.58v3.06H140.19V139.2h12.37v3.08H144v4.41h7.31Z"/><path class="cls-1" d="M159,140.57v3.38h2.35v2.69H159v6.86a2.38,2.38,0,0,0,.09.71,1,1,0,0,0,.27.44,1,1,0,0,0,.44.22,3,3,0,0,0,.62.06l.6,0,.48-.06v2.78a8.28,8.28,0,0,1-1,.23,7,7,0,0,1-1.22.1,5.52,5.52,0,0,1-1.62-.22,3.12,3.12,0,0,1-1.24-.7,3.16,3.16,0,0,1-.79-1.26,5.52,5.52,0,0,1-.28-1.87v-7.25h-2v-2.69h2v-3.38Z"/><path class="cls-1" d="M166.94,145.44a5,5,0,0,1,1.61-1.29,4.52,4.52,0,0,1,2.06-.46,5.74,5.74,0,0,1,1.85.29,3.46,3.46,0,0,1,1.43.93,4.33,4.33,0,0,1,.92,1.66,8.21,8.21,0,0,1,.32,2.46v8.66h-3.67V149a3.57,3.57,0,0,0-.15-1.1,1.74,1.74,0,0,0-.42-.72,1.57,1.57,0,0,0-.69-.39,3.49,3.49,0,0,0-.93-.11,2.79,2.79,0,0,0-1.43.34,2.46,2.46,0,0,0-.9.91v9.76h-3.67v-19.5h3.67Z"/><path class="cls-1" d="M184.23,157.93a7.46,7.46,0,0,1-2.86-.52,6.34,6.34,0,0,1-2.15-1.42,6.11,6.11,0,0,1-1.35-2.11,7.21,7.21,0,0,1-.46-2.6v-.5a8.69,8.69,0,0,1,.45-2.86,6.58,6.58,0,0,1,1.28-2.24,5.8,5.8,0,0,1,2-1.47,6.48,6.48,0,0,1,2.66-.53,6.55,6.55,0,0,1,2.62.49,5.23,5.23,0,0,1,1.9,1.37,5.84,5.84,0,0,1,1.16,2.13,9.3,9.3,0,0,1,.39,2.77V152h-8.75a3.82,3.82,0,0,0,.36,1.22,3.14,3.14,0,0,0,.7.93,3.07,3.07,0,0,0,1,.6,3.61,3.61,0,0,0,1.28.22,4.56,4.56,0,0,0,1.85-.37,3.74,3.74,0,0,0,1.46-1.16l1.8,2a5.41,5.41,0,0,1-.83.91,5.64,5.64,0,0,1-1.17.79,6.94,6.94,0,0,1-1.52.56A7.71,7.71,0,0,1,184.23,157.93Zm-.42-11.27a2.47,2.47,0,0,0-1,.21,2.32,2.32,0,0,0-.78.58,3.09,3.09,0,0,0-.53.9,5.13,5.13,0,0,0-.29,1.16h5.1v-.29a3.74,3.74,0,0,0-.16-1,2.23,2.23,0,0,0-.45-.81,2,2,0,0,0-.76-.53A2.88,2.88,0,0,0,183.81,146.66Z"/><path class="cls-1" d="M199.68,147.38l-.65-.07-.67,0a3.63,3.63,0,0,0-1.75.36,2.22,2.22,0,0,0-1,1v9H192V143.94h3.47l.1,1.64a4.11,4.11,0,0,1,1.28-1.39,3.15,3.15,0,0,1,1.78-.5,4.4,4.4,0,0,1,1.14.17Z"/><path class="cls-1" d="M207.53,157.93a7.46,7.46,0,0,1-2.86-.52,6.34,6.34,0,0,1-2.15-1.42,6.11,6.11,0,0,1-1.35-2.11,7.21,7.21,0,0,1-.46-2.6v-.5a8.69,8.69,0,0,1,.45-2.86,6.58,6.58,0,0,1,1.28-2.24,5.8,5.8,0,0,1,2-1.47,6.48,6.48,0,0,1,2.66-.53,6.55,6.55,0,0,1,2.62.49,5.23,5.23,0,0,1,1.9,1.37,5.84,5.84,0,0,1,1.16,2.13,9.3,9.3,0,0,1,.39,2.77V152h-8.75a3.82,3.82,0,0,0,.36,1.22,3.14,3.14,0,0,0,.7.93,3.07,3.07,0,0,0,1,.6,3.61,3.61,0,0,0,1.28.22,4.56,4.56,0,0,0,1.85-.37,3.74,3.74,0,0,0,1.46-1.16l1.8,2a5.41,5.41,0,0,1-.83.91,5.64,5.64,0,0,1-1.17.79,6.94,6.94,0,0,1-1.52.56A7.71,7.71,0,0,1,207.53,157.93Zm-.42-11.27a2.47,2.47,0,0,0-1,.21,2.32,2.32,0,0,0-.78.58,3.09,3.09,0,0,0-.53.9,5.13,5.13,0,0,0-.29,1.16h5.1v-.29a3.74,3.74,0,0,0-.16-1,2.23,2.23,0,0,0-.45-.81,2,2,0,0,0-.76-.53A2.88,2.88,0,0,0,207.11,146.66Z"/><path class="cls-1" d="M223.48,156.28a4.44,4.44,0,0,1-1.57,1.22,5.12,5.12,0,0,1-2.18.43,5.74,5.74,0,0,1-1.85-.29,3.62,3.62,0,0,1-1.44-.9,4.12,4.12,0,0,1-.93-1.59,7.29,7.29,0,0,1-.33-2.33v-8.89h3.67v8.91a2.92,2.92,0,0,0,.15,1,1.66,1.66,0,0,0,.41.65,1.57,1.57,0,0,0,.62.36,2.56,2.56,0,0,0,.79.11,3.33,3.33,0,0,0,1.61-.34,2.34,2.34,0,0,0,1-1v-9.72H227v13.74h-3.45Z"/><path class="cls-1" d="M233.25,143.94l.11,1.54a4.86,4.86,0,0,1,1.67-1.31,5.16,5.16,0,0,1,2.28-.48,4.63,4.63,0,0,1,2.18.5,3.33,3.33,0,0,1,1.47,1.6,4.87,4.87,0,0,1,1.69-1.54,5,5,0,0,1,2.43-.56,5.61,5.61,0,0,1,1.82.28,3.36,3.36,0,0,1,1.4.9,4.17,4.17,0,0,1,.89,1.62,8.31,8.31,0,0,1,.31,2.44v8.75h-3.68v-8.75a3.67,3.67,0,0,0-.15-1.13,1.59,1.59,0,0,0-.41-.69,1.45,1.45,0,0,0-.65-.34,3.62,3.62,0,0,0-.86-.09,2.32,2.32,0,0,0-1.42.42,2.62,2.62,0,0,0-.86,1.15s0,.09,0,.14,0,.1,0,.14v9.15H237.8V149a3.85,3.85,0,0,0-.14-1.13,1.6,1.6,0,0,0-.41-.7,1.47,1.47,0,0,0-.65-.36,3.44,3.44,0,0,0-.87-.1,2.57,2.57,0,0,0-1.37.34,2.47,2.47,0,0,0-.89,1v9.71h-3.67V143.94Z"/><path class="cls-1" d="M258.64,150.46a18.29,18.29,0,0,1-.28,3.27,18.52,18.52,0,0,1-.75,2.88,15.55,15.55,0,0,1-1.11,2.46,13.59,13.59,0,0,1-1.36,2,10.06,10.06,0,0,1-1.5,1.48,6.88,6.88,0,0,1-1.51.93l-.71-1.94a7.38,7.38,0,0,0,1.41-1.45,10.16,10.16,0,0,0,1.26-2.27,16.53,16.53,0,0,0,.91-3.17,22.09,22.09,0,0,0,.35-4.14v-.34A21.65,21.65,0,0,0,255,146a16.48,16.48,0,0,0-.92-3.17,10.33,10.33,0,0,0-1.26-2.27,7.8,7.8,0,0,0-1.38-1.45l.71-1.94a6.88,6.88,0,0,1,1.51.93,10,10,0,0,1,1.5,1.48,13.52,13.52,0,0,1,1.36,2A15.52,15.52,0,0,1,257.6,144a18.52,18.52,0,0,1,.75,2.88,18.32,18.32,0,0,1,.28,3.27Z"/></g><g class="cls-4"><path class="cls-1" d="M72.17,183.59V165.11h5.69a8.91,8.91,0,0,1,3.42.64,7.73,7.73,0,0,1,2.67,1.8,8.25,8.25,0,0,1,1.73,2.79,10,10,0,0,1,.62,3.61v.84a10.07,10.07,0,0,1-.62,3.6,8.08,8.08,0,0,1-1.74,2.78,7.73,7.73,0,0,1-2.69,1.8,9.06,9.06,0,0,1-3.44.63ZM76,168.19v12.34h1.84A4.13,4.13,0,0,0,81.26,179a6.73,6.73,0,0,0,1.18-4.26v-.86a6.7,6.7,0,0,0-1.17-4.27,4.12,4.12,0,0,0-3.42-1.45Z"/><path class="cls-1" d="M95.15,183.84a7.46,7.46,0,0,1-2.86-.52,6.33,6.33,0,0,1-2.15-1.42,6.08,6.08,0,0,1-1.35-2.11,7.19,7.19,0,0,1-.46-2.6v-.5a8.69,8.69,0,0,1,.45-2.86,6.57,6.57,0,0,1,1.28-2.24,5.78,5.78,0,0,1,2-1.47,6.48,6.48,0,0,1,2.66-.53,6.55,6.55,0,0,1,2.62.49,5.24,5.24,0,0,1,1.9,1.37,5.85,5.85,0,0,1,1.16,2.13,9.3,9.3,0,0,1,.39,2.77v1.56H92a3.82,3.82,0,0,0,.36,1.22,3.13,3.13,0,0,0,.7.93,3.06,3.06,0,0,0,1,.6,3.61,3.61,0,0,0,1.28.22,4.56,4.56,0,0,0,1.85-.37,3.74,3.74,0,0,0,1.46-1.16l1.8,2a5.41,5.41,0,0,1-.83.91,5.62,5.62,0,0,1-1.17.79,7,7,0,0,1-1.52.56A7.72,7.72,0,0,1,95.15,183.84Zm-.42-11.27a2.47,2.47,0,0,0-1,.21,2.3,2.3,0,0,0-.77.58,3.07,3.07,0,0,0-.53.9,5.18,5.18,0,0,0-.29,1.16h5.1v-.29a3.7,3.7,0,0,0-.16-1,2.24,2.24,0,0,0-.44-.81,2,2,0,0,0-.76-.53A2.88,2.88,0,0,0,94.73,172.57Z"/><path class="cls-1" d="M107.85,179.11l2.55-9.25h3.83l-4.63,13.74h-3.5l-4.63-13.74h3.83Z"/><path class="cls-1" d="M122,183.84a7.46,7.46,0,0,1-2.86-.52A6.33,6.33,0,0,1,117,181.9a6.08,6.08,0,0,1-1.35-2.11,7.19,7.19,0,0,1-.46-2.6v-.5a8.69,8.69,0,0,1,.45-2.86,6.57,6.57,0,0,1,1.28-2.24,5.78,5.78,0,0,1,2-1.47,6.48,6.48,0,0,1,2.66-.53,6.55,6.55,0,0,1,2.62.49,5.24,5.24,0,0,1,1.9,1.37,5.85,5.85,0,0,1,1.16,2.13,9.3,9.3,0,0,1,.39,2.77v1.56h-8.75a3.82,3.82,0,0,0,.36,1.22,3.13,3.13,0,0,0,.7.93,3.06,3.06,0,0,0,1,.6,3.61,3.61,0,0,0,1.28.22,4.56,4.56,0,0,0,1.85-.37,3.74,3.74,0,0,0,1.46-1.16l1.8,2a5.41,5.41,0,0,1-.83.91,5.62,5.62,0,0,1-1.17.79,7,7,0,0,1-1.52.56A7.72,7.72,0,0,1,122,183.84Zm-.42-11.27a2.47,2.47,0,0,0-1,.21,2.3,2.3,0,0,0-.77.58,3.07,3.07,0,0,0-.53.9,5.18,5.18,0,0,0-.29,1.16h5.1v-.29a3.7,3.7,0,0,0-.16-1,2.24,2.24,0,0,0-.44-.81,2,2,0,0,0-.76-.53A2.88,2.88,0,0,0,121.59,172.57Z"/><path class="cls-1" d="M133.61,183.59h-3.68v-19.5h3.68Z"/><path class="cls-1" d="M136.06,176.59a8.68,8.68,0,0,1,.43-2.78,6.37,6.37,0,0,1,1.26-2.21,5.78,5.78,0,0,1,2-1.47,6.79,6.79,0,0,1,2.76-.53,6.87,6.87,0,0,1,2.78.53,5.83,5.83,0,0,1,2.05,1.47,6.3,6.3,0,0,1,1.26,2.21,8.65,8.65,0,0,1,.43,2.78v.27a8.65,8.65,0,0,1-.43,2.79,6.34,6.34,0,0,1-1.26,2.21,5.8,5.8,0,0,1-2,1.46,7.54,7.54,0,0,1-5.54,0,5.78,5.78,0,0,1-2-1.46,6.34,6.34,0,0,1-1.26-2.21,8.67,8.67,0,0,1-.43-2.79Zm3.67.27a7.76,7.76,0,0,0,.15,1.57,3.86,3.86,0,0,0,.49,1.28,2.52,2.52,0,0,0,.88.86,2.57,2.57,0,0,0,1.33.32,2.52,2.52,0,0,0,1.3-.32,2.59,2.59,0,0,0,.88-.86,3.78,3.78,0,0,0,.5-1.28,7.76,7.76,0,0,0,.15-1.57v-.27a7.53,7.53,0,0,0-.15-1.54,3.94,3.94,0,0,0-.5-1.28,2.58,2.58,0,0,0-.89-.87,2.53,2.53,0,0,0-1.32-.32,2.47,2.47,0,0,0-1.3.32,2.54,2.54,0,0,0-.88.88,4,4,0,0,0-.49,1.28,7.53,7.53,0,0,0-.15,1.54Z"/><path class="cls-1" d="M163.7,176.85a10.56,10.56,0,0,1-.35,2.78,6.8,6.8,0,0,1-1,2.21,4.86,4.86,0,0,1-1.67,1.47,4.79,4.79,0,0,1-2.29.53,4.57,4.57,0,0,1-1.92-.38A4.31,4.31,0,0,1,155,182.4v6.47h-3.67v-19h3.4l.13,1.35a4.54,4.54,0,0,1,1.48-1.18,4.45,4.45,0,0,1,2-.42,5.09,5.09,0,0,1,2.31.5,4.58,4.58,0,0,1,1.68,1.42,6.65,6.65,0,0,1,1,2.21,10.89,10.89,0,0,1,.35,2.85Zm-3.67-.27a8.1,8.1,0,0,0-.15-1.58,4,4,0,0,0-.46-1.27,2.37,2.37,0,0,0-.82-.84,2.32,2.32,0,0,0-1.23-.3,2.9,2.9,0,0,0-1.48.34,2.25,2.25,0,0,0-.9,1v5.62a2.43,2.43,0,0,0,.9,1,2.79,2.79,0,0,0,1.5.36,2.25,2.25,0,0,0,1.23-.32,2.42,2.42,0,0,0,.81-.87,4.22,4.22,0,0,0,.45-1.29,8.32,8.32,0,0,0,.14-1.56Z"/><path class="cls-1" d="M169.41,169.85l.11,1.54a4.86,4.86,0,0,1,1.67-1.31,5.16,5.16,0,0,1,2.28-.48,4.63,4.63,0,0,1,2.18.5,3.33,3.33,0,0,1,1.47,1.6,4.88,4.88,0,0,1,1.69-1.54,5,5,0,0,1,2.43-.56,5.61,5.61,0,0,1,1.82.28,3.36,3.36,0,0,1,1.4.9,4.17,4.17,0,0,1,.89,1.62,8.31,8.31,0,0,1,.31,2.44v8.75H182v-8.75a3.67,3.67,0,0,0-.15-1.13,1.59,1.59,0,0,0-.41-.69,1.45,1.45,0,0,0-.65-.34,3.62,3.62,0,0,0-.86-.09,2.32,2.32,0,0,0-1.42.42,2.62,2.62,0,0,0-.86,1.15s0,.09,0,.14,0,.1,0,.14v9.15H174v-8.72a3.81,3.81,0,0,0-.14-1.13,1.6,1.6,0,0,0-.41-.7,1.47,1.47,0,0,0-.65-.36,3.45,3.45,0,0,0-.87-.1,2.58,2.58,0,0,0-1.37.34,2.48,2.48,0,0,0-.89,1v9.71H166V169.85Z"/><path class="cls-1" d="M194.8,183.84a7.46,7.46,0,0,1-2.86-.52,6.34,6.34,0,0,1-2.15-1.42,6.11,6.11,0,0,1-1.35-2.11,7.21,7.21,0,0,1-.46-2.6v-.5a8.69,8.69,0,0,1,.45-2.86,6.58,6.58,0,0,1,1.28-2.24,5.8,5.8,0,0,1,2-1.47,6.48,6.48,0,0,1,2.66-.53,6.55,6.55,0,0,1,2.62.49,5.23,5.23,0,0,1,1.9,1.37,5.84,5.84,0,0,1,1.16,2.13,9.3,9.3,0,0,1,.39,2.77v1.56h-8.75a3.82,3.82,0,0,0,.36,1.22,3.14,3.14,0,0,0,.7.93,3.07,3.07,0,0,0,1,.6,3.61,3.61,0,0,0,1.28.22,4.56,4.56,0,0,0,1.85-.37,3.74,3.74,0,0,0,1.46-1.16l1.8,2a5.41,5.41,0,0,1-.83.91,5.64,5.64,0,0,1-1.17.79,6.94,6.94,0,0,1-1.52.56A7.71,7.71,0,0,1,194.8,183.84Zm-.42-11.27a2.47,2.47,0,0,0-1,.21,2.32,2.32,0,0,0-.78.58,3.09,3.09,0,0,0-.53.9,5.13,5.13,0,0,0-.29,1.16h5.1v-.29a3.74,3.74,0,0,0-.16-1,2.23,2.23,0,0,0-.45-.81,2,2,0,0,0-.76-.53A2.88,2.88,0,0,0,194.39,172.57Z"/><path class="cls-1" d="M205.91,169.85l.11,1.59a4.8,4.8,0,0,1,1.71-1.36,5.13,5.13,0,0,1,2.23-.48,5.46,5.46,0,0,1,1.78.27,3.26,3.26,0,0,1,1.37.89,4.2,4.2,0,0,1,.88,1.63,8.39,8.39,0,0,1,.31,2.46v8.73h-3.67v-8.76a3.45,3.45,0,0,0-.15-1.09,1.58,1.58,0,0,0-.42-.69,1.62,1.62,0,0,0-.69-.36,3.66,3.66,0,0,0-.94-.11,2.6,2.6,0,0,0-1.39.36,2.72,2.72,0,0,0-.93,1v9.69h-3.67V169.85Z"/><path class="cls-1" d="M221.49,166.48v3.38h2.35v2.69h-2.35v6.86a2.38,2.38,0,0,0,.09.71,1,1,0,0,0,.27.44,1,1,0,0,0,.44.22,3,3,0,0,0,.62.06l.6,0,.48-.06v2.78a8.28,8.28,0,0,1-1,.23,7,7,0,0,1-1.22.1,5.52,5.52,0,0,1-1.62-.22,3.12,3.12,0,0,1-1.24-.7,3.16,3.16,0,0,1-.79-1.26,5.52,5.52,0,0,1-.28-1.87v-7.25h-2v-2.69h2v-3.38Z"/></g><g class="cls-4"><path class="cls-3" d="M120.47,218.2h-4.14v11.25h-2.78V218.2h-4.08v-2.25h11Z"/><path class="cls-3" d="M132.89,223a8.64,8.64,0,0,1-.42,2.78,6,6,0,0,1-1.17,2.08,5.13,5.13,0,0,1-1.81,1.31,6.13,6.13,0,0,1-4.66,0,5.21,5.21,0,0,1-1.82-1.31,6,6,0,0,1-1.19-2.08,8.43,8.43,0,0,1-.43-2.78v-.59a8.54,8.54,0,0,1,.42-2.77,6.15,6.15,0,0,1,1.18-2.1,5.12,5.12,0,0,1,1.82-1.32,6.14,6.14,0,0,1,4.66,0,5.12,5.12,0,0,1,1.82,1.32,6.16,6.16,0,0,1,1.18,2.1,8.54,8.54,0,0,1,.42,2.77Zm-2.82-.61a5.69,5.69,0,0,0-.76-3.23,2.69,2.69,0,0,0-4.34,0,5.68,5.68,0,0,0-.76,3.23V223a7.88,7.88,0,0,0,.2,1.87,4.2,4.2,0,0,0,.58,1.36,2.5,2.5,0,0,0,.92.83,2.67,2.67,0,0,0,1.25.28,2.45,2.45,0,0,0,2.16-1.11,5.79,5.79,0,0,0,.75-3.24Z"/><path class="cls-3" d="M137.7,224.69v4.76h-2.78V215.94h5.27a6.38,6.38,0,0,1,2.14.33,4.62,4.62,0,0,1,1.6.93,4,4,0,0,1,1,1.42,4.59,4.59,0,0,1,.34,1.79,4.41,4.41,0,0,1-.34,1.77,3.68,3.68,0,0,1-1,1.34,4.6,4.6,0,0,1-1.6.86,7,7,0,0,1-2.14.3Zm0-2.25h2.49a3.17,3.17,0,0,0,1-.15,1.87,1.87,0,0,0,.71-.41,1.61,1.61,0,0,0,.4-.64,2.41,2.41,0,0,0,.13-.81,2.72,2.72,0,0,0-.13-.84,2,2,0,0,0-.4-.71,2,2,0,0,0-.71-.5,2.6,2.6,0,0,0-1-.19H137.7Z"/><path class="cls-3" d="M158.13,229.45h-2.68V219.12l-3.2,1v-2.18l5.59-2h.29Z"/><path class="cls-3" d="M171.61,223.87a9.09,9.09,0,0,1-.33,2.61,5,5,0,0,1-.93,1.8,3.57,3.57,0,0,1-1.44,1,5.42,5.42,0,0,1-3.72,0,3.62,3.62,0,0,1-1.44-1,5,5,0,0,1-.94-1.8,9,9,0,0,1-.33-2.61v-2.35a9.1,9.1,0,0,1,.33-2.61,4.84,4.84,0,0,1,.93-1.79,3.64,3.64,0,0,1,1.44-1,5.41,5.41,0,0,1,3.72,0,3.64,3.64,0,0,1,1.44,1,4.92,4.92,0,0,1,.94,1.79,9,9,0,0,1,.33,2.61Zm-2.68-2.73a7.74,7.74,0,0,0-.12-1.51,2.87,2.87,0,0,0-.37-1,1.47,1.47,0,0,0-.6-.54,1.84,1.84,0,0,0-.8-.17,1.81,1.81,0,0,0-.79.17,1.44,1.44,0,0,0-.59.54,2.89,2.89,0,0,0-.37,1,7.74,7.74,0,0,0-.12,1.51v3.08a7.62,7.62,0,0,0,.13,1.53,3.08,3.08,0,0,0,.37,1,1.42,1.42,0,0,0,.59.55,2,2,0,0,0,1.6,0,1.39,1.39,0,0,0,.59-.55,3.09,3.09,0,0,0,.36-1,8,8,0,0,0,.13-1.53Z"/><path class="cls-3" d="M173.38,218.54a3,3,0,0,1,.19-1.08,2.54,2.54,0,0,1,.56-.89,2.69,2.69,0,0,1,.91-.6,3.29,3.29,0,0,1,1.26-.22,3.39,3.39,0,0,1,1.28.22,2.66,2.66,0,0,1,.92.6,2.49,2.49,0,0,1,.56.89,3.11,3.11,0,0,1,.19,1.08v.71a3.08,3.08,0,0,1-.19,1.07,2.43,2.43,0,0,1-.56.88,2.7,2.7,0,0,1-.91.6,3.71,3.71,0,0,1-2.53,0,2.69,2.69,0,0,1-.92-.6,2.48,2.48,0,0,1-.56-.88,3,3,0,0,1-.19-1.07Zm1.78.71a1.53,1.53,0,0,0,.07.46,1.09,1.09,0,0,0,.22.39,1.06,1.06,0,0,0,.36.27,1.17,1.17,0,0,0,.51.1,1.15,1.15,0,0,0,.5-.1,1,1,0,0,0,.35-.27,1.17,1.17,0,0,0,.21-.39,1.53,1.53,0,0,0,.07-.46v-.71a1.58,1.58,0,0,0-.07-.47,1.16,1.16,0,0,0-.21-.4,1,1,0,0,0-.36-.27,1.19,1.19,0,0,0-.51-.1,1.15,1.15,0,0,0-.5.1,1,1,0,0,0-.36.27,1.13,1.13,0,0,0-.21.4,1.58,1.58,0,0,0-.07.47Zm1.69,9.18-1.31-.71,6.6-10.56,1.31.71Zm3-2.3a3.06,3.06,0,0,1,.19-1.08,2.43,2.43,0,0,1,.57-.89,2.77,2.77,0,0,1,.92-.6,3.29,3.29,0,0,1,1.26-.22,3.4,3.4,0,0,1,1.28.22,2.7,2.7,0,0,1,.92.6,2.41,2.41,0,0,1,.56.89,3.12,3.12,0,0,1,.19,1.08v.72a3.07,3.07,0,0,1-.19,1.08,2.47,2.47,0,0,1-.56.88,2.61,2.61,0,0,1-.91.6,3.39,3.39,0,0,1-1.27.22,3.44,3.44,0,0,1-1.27-.22,2.64,2.64,0,0,1-.93-.6,2.49,2.49,0,0,1-.57-.88,3,3,0,0,1-.19-1.08Zm1.78.72a1.33,1.33,0,0,0,.08.46,1.27,1.27,0,0,0,.24.39,1.14,1.14,0,0,0,.37.27,1.1,1.1,0,0,0,.48.1,1.31,1.31,0,0,0,.55-.1.91.91,0,0,0,.35-.27,1,1,0,0,0,.18-.39,2,2,0,0,0,.05-.46v-.72a1.53,1.53,0,0,0-.07-.46,1.14,1.14,0,0,0-.21-.39,1,1,0,0,0-.36-.27,1.29,1.29,0,0,0-1,0,1,1,0,0,0-.36.27,1.14,1.14,0,0,0-.21.39,1.53,1.53,0,0,0-.07.46Z"/></g><g class="cls-4"><path class="cls-3" d="M131.93,255.88H119.26v-2.51l6-6.37q.67-.74,1.14-1.35a9.78,9.78,0,0,0,.75-1.12,4.28,4.28,0,0,0,.41-.95,3.16,3.16,0,0,0,.12-.84,2.83,2.83,0,0,0-.62-1.94,2.25,2.25,0,0,0-1.78-.7,2.67,2.67,0,0,0-1.15.24,2.36,2.36,0,0,0-.84.65,2.91,2.91,0,0,0-.51,1,4.15,4.15,0,0,0-.18,1.24h-3.68a6.22,6.22,0,0,1,.44-2.35,5.62,5.62,0,0,1,1.28-1.93,6.14,6.14,0,0,1,2-1.31,7.05,7.05,0,0,1,2.67-.48,8.46,8.46,0,0,1,2.58.36,5.25,5.25,0,0,1,1.89,1,4.32,4.32,0,0,1,1.16,1.65,5.85,5.85,0,0,1,.39,2.2,5.55,5.55,0,0,1-.29,1.79,8.47,8.47,0,0,1-.83,1.73,14.11,14.11,0,0,1-1.29,1.75q-.75.88-1.68,1.83L124,252.92h7.95Z"/><path class="cls-3" d="M146.62,248.24a12.45,12.45,0,0,1-.45,3.57,6.76,6.76,0,0,1-1.27,2.46,4.88,4.88,0,0,1-2,1.42,7.41,7.41,0,0,1-5.09,0,4.93,4.93,0,0,1-2-1.42,6.78,6.78,0,0,1-1.28-2.46,12.3,12.3,0,0,1-.46-3.57V245a12.47,12.47,0,0,1,.45-3.57,6.65,6.65,0,0,1,1.28-2.45,5,5,0,0,1,2-1.41,7.39,7.39,0,0,1,5.08,0,5,5,0,0,1,2,1.41,6.73,6.73,0,0,1,1.28,2.45,12.28,12.28,0,0,1,.46,3.57ZM143,244.51a10.54,10.54,0,0,0-.17-2.07,3.9,3.9,0,0,0-.51-1.35,2,2,0,0,0-.82-.74,2.52,2.52,0,0,0-1.09-.23,2.48,2.48,0,0,0-1.09.23,2,2,0,0,0-.81.74,4,4,0,0,0-.5,1.35,10.54,10.54,0,0,0-.17,2.07v4.21a10.4,10.4,0,0,0,.18,2.09,4.21,4.21,0,0,0,.51,1.38,1.94,1.94,0,0,0,.81.75,2.72,2.72,0,0,0,2.18,0,1.91,1.91,0,0,0,.81-.75,4.24,4.24,0,0,0,.5-1.38,10.82,10.82,0,0,0,.17-2.09Z"/><path class="cls-3" d="M161.77,255.88H149.1v-2.51l6-6.37q.67-.74,1.14-1.35a9.78,9.78,0,0,0,.75-1.12,4.28,4.28,0,0,0,.41-.95,3.16,3.16,0,0,0,.12-.84,2.83,2.83,0,0,0-.62-1.94,2.25,2.25,0,0,0-1.78-.7,2.67,2.67,0,0,0-1.15.24,2.36,2.36,0,0,0-.84.65,2.91,2.91,0,0,0-.51,1,4.15,4.15,0,0,0-.18,1.24h-3.68a6.22,6.22,0,0,1,.44-2.35,5.62,5.62,0,0,1,1.28-1.93,6.14,6.14,0,0,1,2-1.31,7.05,7.05,0,0,1,2.67-.48,8.46,8.46,0,0,1,2.58.36,5.25,5.25,0,0,1,1.89,1,4.32,4.32,0,0,1,1.16,1.65,5.85,5.85,0,0,1,.39,2.2,5.55,5.55,0,0,1-.29,1.79,8.47,8.47,0,0,1-.83,1.73,14.11,14.11,0,0,1-1.29,1.75q-.75.88-1.68,1.83l-3.26,3.44h7.95Z"/><path class="cls-3" d="M174.87,248.92H177v3h-2.09v4H171.2v-4h-7.58l-.17-2.31,7.71-12.17h3.71Zm-7.76,0h4.09V242.4l-.24.42Z"/></g></g></g></svg>