<?xml version="1.0" encoding="utf-8"?>
<!-- Generator: Adobe Illustrator 26.4.1, SVG Export Plug-In . SVG Version: 6.00 Build 0)  -->
<svg version="1.1" id="Layer_1" xmlns="http://www.w3.org/2000/svg" xmlns:xlink="http://www.w3.org/1999/xlink" x="0px" y="0px"
	 viewBox="0 0 293.4 194.8" style="enable-background:new 0 0 293.4 194.8;" xml:space="preserve">
<style type="text/css">
	.st0{fill:url(#SVGID_1_);}
	.st1{fill:url(#SVGID_00000145770711980210341380000015628907976761303946_);}
	.st2{fill:url(#SVGID_00000124160657329941946880000012665226241892114575_);}
	.st3{fill:url(#SVGID_00000183971769580410566030000015657929847914427528_);}
	.st4{fill:url(#SVGID_00000065054841480748132460000011406559844464038570_);}
	.st5{fill:url(#SVGID_00000132069849996224227540000015835362146685441457_);}
	.st6{fill:url(#SVGID_00000149350356297042896190000018116490182492853893_);}
	.st7{fill:url(#SVGID_00000054231620974614761050000005279498490486203789_);}
	.st8{fill:url(#SVGID_00000068667684373033674230000013661118158266178447_);}
	.st9{fill:url(#SVGID_00000015349063709114629730000004130999937598442402_);}
	.st10{fill:url(#SVGID_00000145766581820424765950000003230782773958473641_);}
	.st11{fill:url(#SVGID_00000000926752135501047500000010064736326017379004_);}
	.st12{fill:url(#SVGID_00000093893693889271704280000003960371074912403079_);}
	.st13{fill:url(#SVGID_00000149365990327915716210000015558697166381496504_);}
	
		.st14{fill:#FFFFFF;stroke:url(#SVGID_00000008109919366326446250000010671564904853928099_);stroke-width:3.2008;stroke-miterlimit:10;}
	.st15{fill:#FFFFFF;}
	.st16{clip-path:url(#SVGID_00000040551479568111032750000009455104395633641135_);}
	.st17{fill:#003D79;}
	.st18{clip-path:url(#SVGID_00000177443564507310402380000008070789771035548862_);}
	.st19{clip-path:url(#SVGID_00000152253083501851477660000010692111340937684397_);}
	.st20{fill:url(#SVGID_00000109711665134354530100000005199061602879262353_);}
	.st21{clip-path:url(#SVGID_00000006681455082950022640000014027766034687097271_);}
	.st22{fill:url(#SVGID_00000124130217337967905740000006721337409599321528_);}
	.st23{clip-path:url(#SVGID_00000061430837595517313220000014421130274649011122_);}
	.st24{fill:url(#SVGID_00000084509530657234756880000017843353988918607505_);}
	
		.st25{fill:none;stroke:url(#SVGID_00000160186638024728455740000005666947436477463430_);stroke-width:1.3718;stroke-miterlimit:10;}
	
		.st26{fill:none;stroke:url(#SVGID_00000170975395612843431300000003262924497643309750_);stroke-width:1.3718;stroke-miterlimit:10;}
	
		.st27{fill:none;stroke:url(#SVGID_00000181786086732495287290000016982384820067851403_);stroke-width:1.3718;stroke-miterlimit:10;}
	
		.st28{fill:none;stroke:url(#SVGID_00000088110679870795904590000016235985440601672618_);stroke-width:1.3718;stroke-miterlimit:10;}
</style>
<g>
	
		<linearGradient id="SVGID_1_" gradientUnits="userSpaceOnUse" x1="66.1744" y1="83.2699" x2="74.9903" y2="83.2699" gradientTransform="matrix(1 0 0 -1 0 182.1702)">
		<stop  offset="0" style="stop-color:#84A4C2"/>
		<stop  offset="0.5" style="stop-color:#6892B6"/>
		<stop  offset="1" style="stop-color:#2F75A0"/>
	</linearGradient>
	<path class="st0" d="M66.2,98.9c0-13.1,2.9-25.4,8.8-36.3v72.5C69.1,124.3,66.2,112,66.2,98.9L66.2,98.9z"/>
	
		<linearGradient id="SVGID_00000173153777101448856410000002609344419416874625_" gradientUnits="userSpaceOnUse" x1="77.4458" y1="83.2653" x2="86.2617" y2="83.2653" gradientTransform="matrix(1 0 0 -1 0 182.1702)">
		<stop  offset="0" style="stop-color:#84A4C2"/>
		<stop  offset="0.5" style="stop-color:#6892B6"/>
		<stop  offset="1" style="stop-color:#2F75A0"/>
	</linearGradient>
	<path style="fill:url(#SVGID_00000173153777101448856410000002609344419416874625_);" d="M86.3,46.1v105.6
		c-3.4-3.7-6.4-7.6-8.8-11.8V57.9C79.9,53.7,82.8,49.8,86.3,46.1L86.3,46.1z"/>
	
		<linearGradient id="SVGID_00000121240779975642954550000001237945884895884420_" gradientUnits="userSpaceOnUse" x1="88.7126" y1="92.5751" x2="97.5286" y2="92.5751" gradientTransform="matrix(1 0 0 -1 0 182.1702)">
		<stop  offset="0" style="stop-color:#84A4C2"/>
		<stop  offset="0.5" style="stop-color:#6892B6"/>
		<stop  offset="1" style="stop-color:#2F75A0"/>
	</linearGradient>
	<path style="fill:url(#SVGID_00000121240779975642954550000001237945884895884420_);" d="M97.5,26.3v126.5
		c-2.9-2.3-5.9-4.9-8.8-7.7V34C91.7,31.2,94.6,28.7,97.5,26.3z"/>
	
		<linearGradient id="SVGID_00000100367485344560658800000006719630835873807510_" gradientUnits="userSpaceOnUse" x1="100.4687" y1="78.3704" x2="109.2847" y2="78.3704" gradientTransform="matrix(1 0 0 -1 0 182.1702)">
		<stop  offset="0" style="stop-color:#84A4C2"/>
		<stop  offset="0.5" style="stop-color:#6892B6"/>
		<stop  offset="1" style="stop-color:#2F75A0"/>
	</linearGradient>
	<path style="fill:url(#SVGID_00000100367485344560658800000006719630835873807510_);" d="M109.3,33.4v140.7
		c-2.9-1.6-5.9-3.3-8.8-5.2V38.7C103.4,36.7,106.3,35,109.3,33.4L109.3,33.4z"/>
	
		<linearGradient id="SVGID_00000105407742742579853020000012720318381614711184_" gradientUnits="userSpaceOnUse" x1="180.809" y1="94.5344" x2="189.6249" y2="94.5344" gradientTransform="matrix(1 0 0 -1 0 182.1702)">
		<stop  offset="0" style="stop-color:#84A4C2"/>
		<stop  offset="0.5" style="stop-color:#6892B6"/>
		<stop  offset="1" style="stop-color:#2F75A0"/>
	</linearGradient>
	<path style="fill:url(#SVGID_00000105407742742579853020000012720318381614711184_);" d="M189.6,18.1v139.1
		c-2.9,1.9-5.9,3.7-8.8,5.2V12.9C183.7,14.4,186.7,16.2,189.6,18.1z"/>
	
		<linearGradient id="SVGID_00000005953297355450387130000006749192912154502049_" gradientUnits="userSpaceOnUse" x1="192.0758" y1="78.8596" x2="200.8918" y2="78.8596" gradientTransform="matrix(1 0 0 -1 0 182.1702)">
		<stop  offset="0" style="stop-color:#84A4C2"/>
		<stop  offset="0.5" style="stop-color:#6892B6"/>
		<stop  offset="1" style="stop-color:#2F75A0"/>
	</linearGradient>
	<path style="fill:url(#SVGID_00000005953297355450387130000006749192912154502049_);" d="M200.9,47.7v111.2
		c-2.9,2.8-5.9,5.3-8.8,7.7V40.1C195,42.4,198,45,200.9,47.7z"/>
	
		<linearGradient id="SVGID_00000049203715687318508700000015804027213820373147_" gradientUnits="userSpaceOnUse" x1="203.3427" y1="89.1479" x2="212.1586" y2="89.1479" gradientTransform="matrix(1 0 0 -1 0 182.1702)">
		<stop  offset="0" style="stop-color:#84A4C2"/>
		<stop  offset="0.5" style="stop-color:#6892B6"/>
		<stop  offset="1" style="stop-color:#2F75A0"/>
	</linearGradient>
	<path style="fill:url(#SVGID_00000049203715687318508700000015804027213820373147_);" d="M212.2,52.1V134
		c-2.5,4.2-5.4,8.2-8.8,11.8V40.2C206.8,43.9,209.7,47.8,212.2,52.1z"/>
	
		<linearGradient id="SVGID_00000033335321861539265220000006165349060230423975_" gradientUnits="userSpaceOnUse" x1="215.0988" y1="86.7313" x2="223.9147" y2="86.7313" gradientTransform="matrix(1 0 0 -1 0 182.1702)">
		<stop  offset="0" style="stop-color:#84A4C2"/>
		<stop  offset="0.5" style="stop-color:#6892B6"/>
		<stop  offset="1" style="stop-color:#2F75A0"/>
	</linearGradient>
	<path style="fill:url(#SVGID_00000033335321861539265220000006165349060230423975_);" d="M223.9,95.4c0,13.1-3.4,25.4-8.8,36.3
		V59.2C220.5,70,223.9,82.4,223.9,95.4L223.9,95.4z"/>
	
		<linearGradient id="SVGID_00000051369446936580884570000016542751609889683085_" gradientUnits="userSpaceOnUse" x1="134.7585" y1="93.2701" x2="143.5744" y2="93.2701" gradientTransform="matrix(1 0 0 -1 0 182.1702)">
		<stop  offset="0" style="stop-color:#84A4C2"/>
		<stop  offset="0.5" style="stop-color:#6892B6"/>
		<stop  offset="1" style="stop-color:#2F75A0"/>
	</linearGradient>
	<path style="fill:url(#SVGID_00000051369446936580884570000016542751609889683085_);" d="M143.6,10.7v156.4
		c-2.9-0.1-5.9-0.3-8.8-0.6V11.3C137.7,11,140.6,10.8,143.6,10.7z"/>
	
		<linearGradient id="SVGID_00000027595513990961654970000005786910836297974661_" gradientUnits="userSpaceOnUse" x1="111.7356" y1="85.5333" x2="120.5515" y2="85.5333" gradientTransform="matrix(1 0 0 -1 0 182.1702)">
		<stop  offset="0" style="stop-color:#84A4C2"/>
		<stop  offset="0.5" style="stop-color:#6892B6"/>
		<stop  offset="1" style="stop-color:#2F75A0"/>
	</linearGradient>
	<path style="fill:url(#SVGID_00000027595513990961654970000005786910836297974661_);" d="M120.6,13.5v166.4c-2.9-1-5.9-2.1-8.8-3.4
		V16.9C114.7,15.6,117.6,14.4,120.6,13.5z"/>
	
		<linearGradient id="SVGID_00000024685708752595006430000018096008682989975223_" gradientUnits="userSpaceOnUse" x1="146.0254" y1="85.7162" x2="154.8413" y2="85.7162" gradientTransform="matrix(1 0 0 -1 0 182.1702)">
		<stop  offset="0" style="stop-color:#84A4C2"/>
		<stop  offset="0.5" style="stop-color:#6892B6"/>
		<stop  offset="1" style="stop-color:#2F75A0"/>
	</linearGradient>
	<path style="fill:url(#SVGID_00000024685708752595006430000018096008682989975223_);" d="M154.8,15.8v161.4
		c-2.9,0.4-5.9,0.6-8.8,0.6V15.1C149,15.2,151.9,15.4,154.8,15.8L154.8,15.8z"/>
	
		<linearGradient id="SVGID_00000077303572232609527910000004020412620637994910_" gradientUnits="userSpaceOnUse" x1="123.4917" y1="95.7896" x2="132.3076" y2="95.7896" gradientTransform="matrix(1 0 0 -1 0 182.1702)">
		<stop  offset="0" style="stop-color:#84A4C2"/>
		<stop  offset="0.5" style="stop-color:#6892B6"/>
		<stop  offset="1" style="stop-color:#2F75A0"/>
	</linearGradient>
	<path style="fill:url(#SVGID_00000077303572232609527910000004020412620637994910_);" d="M132.3,0v172.8c-3.4-0.5-6.4-1.1-8.8-2V2
		C125.9,1.1,128.9,0.5,132.3,0L132.3,0z"/>
	
		<linearGradient id="SVGID_00000091734575892542006490000001223304252574515901_" gradientUnits="userSpaceOnUse" x1="157.4385" y1="68.8525" x2="166.602" y2="68.8525" gradientTransform="matrix(1 0 0 -1 0 182.1702)">
		<stop  offset="0" style="stop-color:#84A4C2"/>
		<stop  offset="0.5" style="stop-color:#6892B6"/>
		<stop  offset="1" style="stop-color:#2F75A0"/>
	</linearGradient>
	<path style="fill:url(#SVGID_00000091734575892542006490000001223304252574515901_);" d="M166.6,33.8l-0.3,159.1
		c-2.9,0.8-5.9,1.5-8.8,2l0.3-163C160.7,32.3,163.7,33,166.6,33.8z"/>
	
		<linearGradient id="SVGID_00000067944662037993135040000003422122949402635150_" gradientUnits="userSpaceOnUse" x1="169.0529" y1="78.3681" x2="177.8688" y2="78.3681" gradientTransform="matrix(1 0 0 -1 0 182.1702)">
		<stop  offset="0" style="stop-color:#84A4C2"/>
		<stop  offset="0.5" style="stop-color:#6892B6"/>
		<stop  offset="1" style="stop-color:#2F75A0"/>
	</linearGradient>
	<path style="fill:url(#SVGID_00000067944662037993135040000003422122949402635150_);" d="M177.9,32.2v143.3
		c-2.9,1.3-5.9,2.5-8.8,3.4V28.7C172,29.7,174.9,30.8,177.9,32.2z"/>
</g>
<linearGradient id="SVGID_00000037675519077232443550000016849414404483671227_" gradientUnits="userSpaceOnUse" x1="84.2361" y1="85.1721" x2="206.0496" y2="85.1721" gradientTransform="matrix(1 0 0 -1 0 182.1702)">
	<stop  offset="0" style="stop-color:#84A4C2"/>
	<stop  offset="0.5" style="stop-color:#6892B6"/>
	<stop  offset="1" style="stop-color:#2F75A0"/>
</linearGradient>
<ellipse style="fill:#FFFFFF;stroke:url(#SVGID_00000037675519077232443550000016849414404483671227_);stroke-width:3.2008;stroke-miterlimit:10;" cx="145.1" cy="97" rx="59.3" ry="62.3"/>
<rect y="74.4" class="st15" width="293.4" height="45.6"/>
<g>
	<defs>
		<rect id="SVGID_00000124135417310340583470000005063944685191862166_" x="111" y="44.9" width="67" height="23"/>
	</defs>
	<clipPath id="SVGID_00000143584527332316224810000012348507746524038532_">
		<use xlink:href="#SVGID_00000124135417310340583470000005063944685191862166_"  style="overflow:visible;"/>
	</clipPath>
	<g style="clip-path:url(#SVGID_00000143584527332316224810000012348507746524038532_);">
		<rect x="130.2" y="51.4" class="st17" width="3.2" height="13.3"/>
		<path class="st17" d="M140.3,51.4h3.3l5.5,13.3h-3.4l-1.1-3h-5.5l-1.2,3h-3.3L140.3,51.4L140.3,51.4z M140,59.6h3.8l-1.9-4.9h0
			L140,59.6L140,59.6z"/>
		<g>
			<defs>
				<rect id="SVGID_00000048464083358912685490000003158911402021067935_" x="108.6" y="44.3" width="72.5" height="24"/>
			</defs>
			<clipPath id="SVGID_00000041269608721111799840000015124608739371124898_">
				<use xlink:href="#SVGID_00000048464083358912685490000003158911402021067935_"  style="overflow:visible;"/>
			</clipPath>
			<g style="clip-path:url(#SVGID_00000041269608721111799840000015124608739371124898_);">
				<path class="st17" d="M156.9,51.1c4.5,0,7.2,3.1,7.2,7s-2.7,6.9-7.2,6.9s-7.2-3.1-7.2-6.9S152.4,51.1,156.9,51.1 M156.9,62.6
					c2.9,0,4-2.2,4-4.4c0-2.3-1.1-4.5-4-4.5s-4,2.2-4,4.5S154,62.6,156.9,62.6"/>
				<path class="st17" d="M166.4,51.4h6.6c3.7,0,5.1,2.1,5.1,4.3c0,2.2-1.4,4.3-5.1,4.3h-3.4v4.8h-3.2V51.4z M169.6,57.7h2.5
					c1.5,0,2.8-0.3,2.8-2s-1.3-2-2.8-2h-2.5V57.7L169.6,57.7z"/>
			</g>
		</g>
		<g>
			<defs>
				<path id="SVGID_00000069361125101076878060000011962316529933092493_" d="M111,57.4v1.2h3.7c0.8,4.6,6.4,8.3,13.6,9.1
					c0.3,0,0.5,0.1,0.8,0.1v-1.2c-0.3,0-0.5-0.1-0.8-0.1c-7.1-0.8-12.4-4.5-12.4-8.9v-0.2L111,57.4L111,57.4z"/>
			</defs>
			<clipPath id="SVGID_00000051359866690180922450000000595164701543787428_">
				<use xlink:href="#SVGID_00000069361125101076878060000011962316529933092493_"  style="overflow:visible;"/>
			</clipPath>
			<g style="clip-path:url(#SVGID_00000051359866690180922450000000595164701543787428_);">
				
					<linearGradient id="SVGID_00000072278364890992745440000005619809753268124343_" gradientUnits="userSpaceOnUse" x1="-1469.5393" y1="954.4628" x2="-1467.6418" y2="954.4628" gradientTransform="matrix(6.6529 -7.9286 7.9286 6.6529 2323.2473 -17931.5059)">
					<stop  offset="0" style="stop-color:#00407C"/>
					<stop  offset="4.000000e-02" style="stop-color:#003D79"/>
					<stop  offset="9.000000e-02" style="stop-color:#005C99"/>
					<stop  offset="0.15" style="stop-color:#0076B4"/>
					<stop  offset="0.22" style="stop-color:#008AC9"/>
					<stop  offset="0.29" style="stop-color:#0098D8"/>
					<stop  offset="0.38" style="stop-color:#00A1E1"/>
					<stop  offset="0.51" style="stop-color:#00A4E4"/>
					<stop  offset="1" style="stop-color:#003D79"/>
				</linearGradient>
				<polygon style="fill:url(#SVGID_00000072278364890992745440000005619809753268124343_);" points="105.9,63.5 118.5,48.5 
					134.3,61.7 121.7,76.8 				"/>
			</g>
		</g>
		<g>
			<defs>
				<path id="SVGID_00000176748585108923198720000001208943806289583029_" d="M133.6,47.5v1.1c2.4,0.2,4.7,0.7,6.6,1.5h2.7
					c-2.5-1.5-5.8-2.5-9.3-2.8C133.6,47.4,133.6,47.5,133.6,47.5z"/>
			</defs>
			<clipPath id="SVGID_00000078016074106477163890000003272231711858473406_">
				<use xlink:href="#SVGID_00000176748585108923198720000001208943806289583029_"  style="overflow:visible;"/>
			</clipPath>
			<g style="clip-path:url(#SVGID_00000078016074106477163890000003272231711858473406_);">
				
					<linearGradient id="SVGID_00000116220194865391982220000007263258846061913498_" gradientUnits="userSpaceOnUse" x1="-1450.1117" y1="979.8073" x2="-1449.2023" y2="979.8073" gradientTransform="matrix(5.7401 -6.8408 6.8408 5.7401 1757.3676 -15492.9482)">
					<stop  offset="0" style="stop-color:#00407C"/>
					<stop  offset="4.000000e-02" style="stop-color:#003D79"/>
					<stop  offset="9.000000e-02" style="stop-color:#005C99"/>
					<stop  offset="0.15" style="stop-color:#0076B4"/>
					<stop  offset="0.22" style="stop-color:#008AC9"/>
					<stop  offset="0.29" style="stop-color:#0098D8"/>
					<stop  offset="0.38" style="stop-color:#00A1E1"/>
					<stop  offset="0.51" style="stop-color:#00A4E4"/>
					<stop  offset="1" style="stop-color:#003D79"/>
				</linearGradient>
				<polygon style="fill:url(#SVGID_00000116220194865391982220000007263258846061913498_);" points="132.2,49 137.4,42.8 
					144.3,48.5 139,54.7 				"/>
			</g>
		</g>
		<g>
			<defs>
				<path id="SVGID_00000139288639382497117750000001471318887180714930_" d="M130.3,44.9v2.4c-7.4,0.3-13.6,3.6-15.3,8h1.3
					c1.7-3.9,7.9-6.8,15-6.8h0.2v-3.7L130.3,44.9L130.3,44.9z"/>
			</defs>
			<clipPath id="SVGID_00000145770195724953371980000013851223530789244817_">
				<use xlink:href="#SVGID_00000139288639382497117750000001471318887180714930_"  style="overflow:visible;"/>
			</clipPath>
			<g style="clip-path:url(#SVGID_00000145770195724953371980000013851223530789244817_);">
				
					<linearGradient id="SVGID_00000052099086039776625290000009214338150257463951_" gradientUnits="userSpaceOnUse" x1="-1561.6836" y1="840.8418" x2="-1561.144" y2="840.8418" gradientTransform="matrix(22.1633 -26.4132 26.4132 22.1633 12519.3018 -59826.7656)">
					<stop  offset="0" style="stop-color:#00407C"/>
					<stop  offset="4.000000e-02" style="stop-color:#003D79"/>
					<stop  offset="9.000000e-02" style="stop-color:#005C99"/>
					<stop  offset="0.15" style="stop-color:#0076B4"/>
					<stop  offset="0.22" style="stop-color:#008AC9"/>
					<stop  offset="0.29" style="stop-color:#0098D8"/>
					<stop  offset="0.38" style="stop-color:#00A1E1"/>
					<stop  offset="0.51" style="stop-color:#00A4E4"/>
					<stop  offset="1" style="stop-color:#003D79"/>
				</linearGradient>
				<polygon style="fill:url(#SVGID_00000052099086039776625290000009214338150257463951_);" points="109.9,51 121.9,36.7 
					136.7,49.2 124.7,63.5 				"/>
			</g>
		</g>
	</g>
</g>
<g>
	<path class="st17" d="M104.2,80.9v-1.1l1.1-1c2.2-2,3.2-3.1,3.2-4.3c0-0.8-0.4-1.5-1.6-1.5c-0.8,0-1.5,0.4-2,0.8l-0.5-1.2
		c0.7-0.5,1.7-0.9,2.8-0.9c2,0,3,1.3,3,2.8c0,1.6-1.2,2.9-2.8,4.4l-0.8,0.7v0h3.8v1.4L104.2,80.9L104.2,80.9z"/>
	<path class="st17" d="M118.3,76.2c0,2.9-1.2,4.8-3.4,4.8s-3.3-1.9-3.3-4.7c0-2.9,1.2-4.8,3.4-4.8C117.2,71.6,118.3,73.5,118.3,76.2
		z M113.4,76.3c0,2.2,0.6,3.4,1.6,3.4c1,0,1.6-1.2,1.6-3.4s-0.5-3.4-1.6-3.4C114,72.9,113.4,74,113.4,76.3z"/>
	<path class="st17" d="M119.4,80.9v-1.1l1.1-1c2.2-2,3.2-3.1,3.2-4.3c0-0.8-0.4-1.5-1.6-1.5c-0.8,0-1.5,0.4-2,0.8l-0.5-1.2
		c0.7-0.5,1.7-0.9,2.8-0.9c2,0,3,1.3,3,2.8c0,1.6-1.2,2.9-2.8,4.4l-0.8,0.7v0h3.8v1.4L119.4,80.9L119.4,80.9z"/>
	<path class="st17" d="M130.8,80.9v-2.3h-4.2v-1.1l3.8-5.7h2.1v5.5h1.2v1.3h-1.2v2.3H130.8z M130.8,77.2v-2.5c0-0.5,0-1.1,0.1-1.6
		h-0.1c-0.3,0.6-0.5,1-0.8,1.6l-1.7,2.5l0,0L130.8,77.2L130.8,77.2z"/>
	<path class="st17" d="M145.6,80.4c-0.6,0.2-1.8,0.5-3.1,0.5c-1.6,0-2.8-0.4-3.7-1.3c-0.9-0.8-1.3-2.1-1.3-3.5c0-3,2.2-4.9,5.3-4.9
		c1.2,0,2.1,0.2,2.5,0.5l-0.4,1.4c-0.5-0.2-1.2-0.4-2.2-0.4c-2,0-3.5,1.2-3.5,3.4s1.3,3.4,3.3,3.4c0.6,0,1.1-0.1,1.3-0.2V77h-1.7
		v-1.4h3.4V80.4L145.6,80.4z"/>
	<path class="st17" d="M147.4,71.4h1.7v8.1h3.9v1.5h-5.7V71.4z"/>
	<path class="st17" d="M162.3,76c0,3.2-1.9,5-4.6,5c-2.6,0-4.4-2-4.4-4.8c0-2.8,1.8-5,4.5-5C160.6,71.2,162.3,73.3,162.3,76
		L162.3,76z M155.2,76.2c0,1.9,1,3.5,2.7,3.5s2.6-1.6,2.6-3.5c0-1.8-0.9-3.5-2.6-3.5C156.1,72.6,155.2,74.2,155.2,76.2z"/>
	<path class="st17" d="M163.8,71.5c0.6-0.1,1.6-0.2,2.5-0.2c1.3,0,2.1,0.2,2.7,0.6c0.6,0.4,1,1,1,1.8c0,0.9-0.6,1.7-1.6,2.1v0
		c1,0.3,1.9,1,1.9,2.4c0,0.8-0.4,1.5-0.9,2c-0.7,0.6-1.8,0.9-3.5,0.9c-1,0-1.7-0.1-2.1-0.1L163.8,71.5L163.8,71.5z M165.6,75.3h0.9
		c1.2,0,1.9-0.6,1.9-1.4c0-0.9-0.7-1.3-1.8-1.3c-0.5,0-0.8,0-1,0.1L165.6,75.3L165.6,75.3z M165.6,79.6c0.2,0,0.5,0,0.9,0
		c1.1,0,2.1-0.4,2.1-1.6c0-1.1-1-1.6-2.2-1.6h-0.9L165.6,79.6L165.6,79.6z"/>
	<path class="st17" d="M173.9,78.2l-0.8,2.7h-1.8l3.1-9.5h2.2l3.1,9.5h-1.9l-0.9-2.7H173.9L173.9,78.2z M176.6,76.9l-0.8-2.3
		c-0.2-0.6-0.3-1.2-0.5-1.8h0c-0.1,0.5-0.3,1.2-0.5,1.8l-0.7,2.3H176.6L176.6,76.9z"/>
	<path class="st17" d="M181,71.4h1.7v8.1h3.9v1.5H181V71.4z"/>
</g>
<linearGradient id="SVGID_00000156551159611355641040000005428059368441347481_" gradientUnits="userSpaceOnUse" x1="89.8238" y1="102.7536" x2="26.1735" y2="102.7536" gradientTransform="matrix(1 0 0 -1 0 182.1702)">
	<stop  offset="0" style="stop-color:#84A4C2"/>
	<stop  offset="0.5" style="stop-color:#6892B6"/>
	<stop  offset="1" style="stop-color:#2F75A0"/>
</linearGradient>
<line style="fill:none;stroke:url(#SVGID_00000156551159611355641040000005428059368441347481_);stroke-width:1.3718;stroke-miterlimit:10;" x1="26.2" y1="79.4" x2="89.8" y2="79.4"/>
<linearGradient id="SVGID_00000004507116368327959150000005290060383545940111_" gradientUnits="userSpaceOnUse" x1="264.2632" y1="102.7536" x2="198.7609" y2="102.7536" gradientTransform="matrix(1 0 0 -1 0 182.1702)">
	<stop  offset="0" style="stop-color:#84A4C2"/>
	<stop  offset="0.5" style="stop-color:#6892B6"/>
	<stop  offset="1" style="stop-color:#2F75A0"/>
</linearGradient>
<line style="fill:none;stroke:url(#SVGID_00000004507116368327959150000005290060383545940111_);stroke-width:1.3718;stroke-miterlimit:10;" x1="198.8" y1="79.4" x2="264.3" y2="79.4"/>
<g>
	<path class="st17" d="M44.1,96.9c0,7.4-4.4,12-11.4,12s-11-5.3-11-11.7c0-6.3,4.4-11.9,11.3-11.9C40.4,85.3,44.1,90.8,44.1,96.9
		L44.1,96.9z M28.1,97.2c0,4.3,1.9,6.9,4.8,6.9s4.7-2.9,4.7-7c0-4.1-1.8-6.9-4.7-6.9S28.1,93,28.1,97.2L28.1,97.2z"/>
	<path class="st17" d="M55,85.7v12.9c0,3.5,1.2,5.4,3.6,5.4s3.6-1.8,3.6-5.4V85.7h6.1v12.6c0,7-3.5,10.6-9.9,10.6s-9.6-3.4-9.6-10.8
		V85.7H55L55,85.7z"/>
	<path class="st17" d="M78.5,90.8h-5.8v-5.1h17.9v5.1h-5.9v17.7h-6.1L78.5,90.8L78.5,90.8z"/>
	<path class="st17" d="M95,102.5c1.4,0.7,3.7,1.4,5.9,1.4c2.1,0,3.1-0.7,3.1-1.9c0-1.1-1-1.8-3.6-2.6c-3.9-1.4-6.4-3.5-6.4-6.9
		c0-4,3.4-7.1,9.1-7.1c2.7,0,4.7,0.5,6.2,1.2l-1.3,4.9c-1-0.4-2.7-1.1-5-1.1c-1.9,0-2.9,0.7-2.9,1.7c0,1.2,1.2,1.6,4.1,2.7
		c4.1,1.5,6,3.7,6,6.9c0,3.9-3.1,7.3-9.8,7.3c-2.7,0-5.4-0.7-6.7-1.4L95,102.5L95,102.5z"/>
	<path class="st17" d="M136.6,96.9c0,7.4-4.4,12-11.4,12c-7,0-11-5.3-11-11.7c0-6.3,4.4-11.9,11.3-11.9
		C132.9,85.3,136.6,90.8,136.6,96.9L136.6,96.9z M120.7,97.2c0,4.3,1.9,6.9,4.8,6.9c2.9,0,4.7-2.9,4.7-7c0-4.1-1.8-6.9-4.7-6.9
		C122.5,90.2,120.7,93,120.7,97.2L120.7,97.2z"/>
	<path class="st17" d="M147.5,85.7v12.9c0,3.5,1.2,5.4,3.6,5.4c2.4,0,3.6-1.8,3.6-5.4V85.7h6.1v12.6c0,7-3.5,10.6-9.9,10.6
		s-9.6-3.4-9.6-10.8V85.7H147.5L147.5,85.7z"/>
	<path class="st17" d="M166.6,86c1.7-0.3,4.3-0.5,7.4-0.5c3.5,0,6,0.5,7.7,1.8c1.5,1.1,2.3,2.7,2.3,5c0,2.8-2.1,4.9-3.9,5.5v0.1
		c1.5,0.6,2.3,2.1,2.9,4.1c0.7,2.3,1.5,5.7,1.9,6.5h-6.3c-0.3-0.7-0.9-2.4-1.6-5.2c-0.6-2.7-1.5-3.3-3.4-3.3h-1v8.6h-6.1V86
		L166.6,86z M172.7,95.6h1.6c2.3,0,3.6-1.2,3.6-2.8c0-1.7-1.1-2.7-3.2-2.7c-1.2,0-1.8,0.1-2.1,0.1V95.6L172.7,95.6z"/>
	<path class="st17" d="M205.9,108c-0.9,0.4-3,0.9-5.8,0.9c-8.5,0-12.3-5.3-12.3-11.4c0-8.1,5.9-12.2,12.7-12.2c2.6,0,4.8,0.5,5.7,1
		l-1.2,4.8c-1-0.4-2.4-0.8-4.2-0.8c-3.5,0-6.6,2.1-6.6,6.7c0,4.2,2.5,6.7,6.7,6.7c1.5,0,3.2-0.3,4.1-0.7L205.9,108L205.9,108z"/>
	<path class="st17" d="M216.9,85.7v22.8h-6.1V85.7H216.9L216.9,85.7z"/>
	<path class="st17" d="M222.6,108.6V85.7h7.2l3.6,7c1.3,2.3,2.6,5.3,3.6,8h0.1c-0.3-3-0.5-6.2-0.5-9.6v-5.4h5.6v22.8h-6.4L232,101
		c-1.3-2.4-2.8-5.5-3.9-8.3H228c0.1,3.1,0.2,6.5,0.2,10.2v5.6H222.6L222.6,108.6z"/>
	<path class="st17" d="M267.9,107.5c-1.7,0.6-4.9,1.3-7.9,1.3c-4.5,0-7.6-1.1-9.6-3.1c-2.1-2-3.3-5-3.3-8.3c0-7.9,5.9-12,13.3-12
		c3.1,0,5.4,0.5,6.6,1.1l-1.2,4.9c-1.3-0.5-2.8-0.9-5.4-0.9c-3.8,0-6.9,2-6.9,6.6c0,4.3,2.7,6.7,6.5,6.7c0.8,0,1.6-0.1,1.9-0.2v-3.9
		h-3V95h8.9L267.9,107.5L267.9,107.5z"/>
</g>
<g>
	<path class="st17" d="M116,121.6L116,121.6l-6.3,2.6l-1.4-6.1l9-3.8h7.2v29.8H116L116,121.6L116,121.6z"/>
	<path class="st17" d="M154.2,128.7c0,8.7-3.9,15.4-12.4,15.5c-9,0-12.4-7.5-12.4-15.3c0-8.1,3.5-15.4,12.4-15.5
		C151,113.4,154.2,121.1,154.2,128.7L154.2,128.7z M138.2,128.8c0,6.5,1.4,9.2,3.8,9.2c2.2,0,3.6-2.8,3.6-9.2c0-6.4-1.3-9.1-3.6-9.1
		C139.6,119.6,138.1,122.3,138.2,128.8L138.2,128.8z"/>
	<path class="st17" d="M182.2,128.6c0,8.7-3.9,15.4-12.4,15.5c-9,0-12.4-7.5-12.4-15.3c0-8.1,3.5-15.4,12.4-15.5
		C179,113.3,182.1,121,182.2,128.6L182.2,128.6z M166.1,128.7c0,6.5,1.4,9.2,3.8,9.2c2.2,0,3.6-2.8,3.6-9.2c0-6.3-1.3-9.1-3.6-9.1
		C167.5,119.5,166.1,122.2,166.1,128.7L166.1,128.7z"/>
</g>
<linearGradient id="SVGID_00000149339906856699661260000004628921792931553679_" gradientUnits="userSpaceOnUse" x1="89.6912" y1="66.4108" x2="26.0408" y2="66.4108" gradientTransform="matrix(1 0 0 -1 0 182.1702)">
	<stop  offset="0" style="stop-color:#84A4C2"/>
	<stop  offset="0.5" style="stop-color:#6892B6"/>
	<stop  offset="1" style="stop-color:#2F75A0"/>
</linearGradient>
<line style="fill:none;stroke:url(#SVGID_00000149339906856699661260000004628921792931553679_);stroke-width:1.3718;stroke-miterlimit:10;" x1="26" y1="115.8" x2="89.7" y2="115.8"/>
<linearGradient id="SVGID_00000178191485845302692310000009392424477337313958_" gradientUnits="userSpaceOnUse" x1="264.5832" y1="66.4108" x2="199.0856" y2="66.4108" gradientTransform="matrix(1 0 0 -1 0 182.1702)">
	<stop  offset="0" style="stop-color:#84A4C2"/>
	<stop  offset="0.5" style="stop-color:#6892B6"/>
	<stop  offset="1" style="stop-color:#2F75A0"/>
</linearGradient>
<line style="fill:none;stroke:url(#SVGID_00000178191485845302692310000009392424477337313958_);stroke-width:1.3718;stroke-miterlimit:10;" x1="199.1" y1="115.8" x2="264.6" y2="115.8"/>
</svg>
