<?xml version="1.0" encoding="utf-8"?>
<!-- Generator: Adobe Illustrator 21.1.0, SVG Export Plug-In . SVG Version: 6.00 Build 0)  -->
<svg version="1.1" id="Layer_1" xmlns="http://www.w3.org/2000/svg" xmlns:xlink="http://www.w3.org/1999/xlink" x="0px" y="0px"
	 viewBox="0 0 243.2 100" style="enable-background:new 0 0 243.2 100;" xml:space="preserve">
<style type="text/css">
	.st0{fill:#214188;}
	.st1{fill:#6E6F71;}
</style>
<g>
	<path class="st0" d="M12.9,100c-0.4-0.4-0.9-0.3-1.3-0.4C4.8,97.9,0,92,0,85C0,61.7,0,38.3,0,15c0-8.4,6.7-15,15.1-15
		C29.9,0,44.7,0,59.5,0c5.6,0,9.9,2.5,13,7.3c0.5,0.7,0.4,1.2-0.1,1.8C61.2,24.3,49.9,39.5,39,54.8c-3.6,5.1-7.2,10.1-10.7,15.2
		c-0.6,0.9-1,0.9-1.8,0.3c-6.6-4.7-13.9-8-21.5-10.7c-0.4-0.2-0.4-0.1-1.2-0.1c7.4,13,13.6,26.6,19.2,40.4
		C19.6,100,16.3,100,12.9,100z"/>
	<path class="st0" d="M30.3,100c-0.1-0.5,0.2-0.8,0.4-1.2c9.3-21.4,20-42.1,31.4-62.5c3.9-7,7.9-14,11.9-21c0.2-0.3,0.3-0.5,0.7-1.1
		c0,0.7,0.1,1.1,0.1,1.5c0,22.9,0,45.8,0,68.6c0,7.6-4.5,13.5-11.7,15.2c-0.5,0.1-1.1,0-1.5,0.4C51.1,100,40.7,100,30.3,100z"/>
	<path class="st0" d="M123.2,36.2c-3,0-5.8-0.6-8-2.9c-1.3-1.5-1.9-3.3-2.3-5.2c-0.1-0.6,0.2-0.7,0.6-0.7c1.1-0.1,2.3-0.1,3.4-0.3
		c0.7-0.1,0.8,0.2,1,0.7c1.1,3.6,4.4,5.1,7.9,3.7c0.7-0.3,1.3-0.7,1.7-1.3c1-1.5,0.6-3.2-1-4c-1.7-0.8-3.6-1.1-5.5-1.7
		c-1.9-0.6-3.8-1.1-5.2-2.5c-3.7-3.6-2.5-9.5,2.4-11.3c3.3-1.2,6.7-1.2,10,0.2c2.4,1.1,3.7,3.1,4.1,5.7c0.1,0.9-0.1,1.1-1,1.1
		c-1,0-2,0-3,0.1c-0.6,0.1-0.9,0-1.1-0.7c-0.9-2.9-5.8-4-8-1.8c-1,1-0.8,2.5,0.6,3.3c1.2,0.7,2.7,1,4,1.4c1.6,0.5,3.2,0.9,4.7,1.5
		c3.1,1.3,4.6,3.7,4.6,7.2c-0.1,3.2-1.9,5.8-4.8,6.9C126.7,36,125,36.2,123.2,36.2z"/>
	<path class="st1" d="M173.9,52.5c-22.7,0-45.3,0-68,0c-0.6,0-1.4,0.3-1.3-0.8c0-0.7,0.2-1,0.9-0.9c0.2,0,0.3,0,0.5,0
		c45.3,0,90.6,0,135.9,0c0.9,0,1.6,0,1.4,1.2c-0.1,0.4-0.2,0.6-0.6,0.6c-0.3,0-0.6,0-1,0C219,52.5,196.5,52.5,173.9,52.5z"/>
	<path class="st0" d="M237.8,17.3c-1.9,1.7-3.8,2.9-6.2,3.6c0-1.3,0-2.6,0-3.8c0-0.6,0.4-0.7,0.8-0.9c2.6-1.3,4.9-2.9,6.1-5.6
		c0.2-0.4,0.5-0.5,0.9-0.5c3.2-0.2,3.2-0.2,3.2,3c0,7.1,0,14.2,0,21.3c0,1-0.2,1.5-1.3,1.4c-1.1-0.1-2.6,0.5-3.3-0.2
		c-0.8-0.7-0.2-2.2-0.2-3.4C237.8,27.3,237.8,22.5,237.8,17.3z"/>
	<path class="st0" d="M104.4,23.1c0-3.9,0-7.9,0-11.8c0-0.8,0.1-1.1,1-1c1,0.1,2,0.1,3,0c0.9-0.1,1.1,0.3,1.1,1.1
		c0,7.8,0,15.5,0,23.3c0,0.9-0.2,1.3-1.1,1.2c-1.3-0.1-3,0.5-3.7-0.3c-0.6-0.7-0.2-2.4-0.2-3.7C104.3,28.9,104.4,26,104.4,23.1z"/>
	<path class="st1" d="M157.7,74.7c0.3,0.9-0.1,1.5-1,1.9c-1.6,0.7-3.3,0.8-5,0.4c-2.9-0.6-4.6-3.2-4.4-6.6c0.2-3.3,2.3-5.5,5.5-5.8
		c1.2-0.1,2.4,0,3.6,0.4c1.6,0.5,1.6,0.5,1,2.3c-0.8-0.8-1.5-1.6-2.6-1.8c-2.4-0.5-4.5,0.7-5.2,3.2c-0.7,2.6,0,5.5,1.6,6.7
		c1.5,1.2,3.8,1.1,5.5-0.1C157,75.1,157.2,74.7,157.7,74.7z"/>
	<path class="st1" d="M135.3,74.7c0.3,1-0.1,1.5-1,1.9c-1.6,0.7-3.3,0.8-5,0.4c-2.9-0.6-4.6-3.3-4.4-6.4c0.3-3.5,2.3-5.6,5.5-5.9
		c1.2-0.1,2.4,0,3.6,0.4c1.6,0.5,1.6,0.5,1.1,2.1c-0.2,0.2-0.3,0-0.5-0.1c-1.1-1.5-2.6-1.8-4.3-1.5c-1.8,0.4-2.8,1.6-3.2,3.3
		c-0.3,1.4-0.3,2.8,0.1,4.2c0.9,3.1,4.2,4.2,6.9,2.4C134.6,75.2,134.8,74.8,135.3,74.7z"/>
	<path class="st1" d="M232,69.9c1-1.2,2.1-1.7,3.5-1.6c1.2,0.2,2,0.9,2.1,2.1c0.1,1.9,0.1,3.8,0.2,5.7c0,0.8-0.4,0.7-0.9,0.7
		c-0.7,0-0.8-0.2-0.8-0.8c0.1-1.5,0.1-3.1,0-4.6c0-1.3-0.7-2-1.7-2.1c-1.1-0.1-1.9,0.5-2.1,1.8c-0.3,1.6-0.3,3.2-0.1,4.8
		c0,0.5,0.1,0.9-0.7,0.9c-0.7,0-1-0.1-1-0.9c0.1-2.1,0-4.1,0.1-6.2c0-0.4-0.5-1.1,0.6-1.3C232,68.4,232,69,232,69.9z"/>
	<path class="st1" d="M104.4,70.9c0-1.7,0-3.3,0-5c0-0.8,0.1-1.1,1-1c0.8,0,1,0.1,1,1c-0.1,3,0,6.1-0.1,9.1c0,0.8,0.2,1.2,1.1,1.1
		c1-0.1,1.9-0.1,2.9-0.2c0.3,0,0.7-0.1,0.7,0.4c0,0.5-0.1,0.7-0.6,0.7c-1.8,0-3.6,0-5.5,0c-0.7,0-0.5-0.5-0.5-0.8
		C104.3,74.4,104.3,72.6,104.4,70.9C104.4,70.9,104.4,70.9,104.4,70.9z"/>
	<path class="st1" d="M114.4,70.4c0,1.5,0.1,3,0,4.5c-0.1,1,0.4,1.3,1.3,1.2c0.9-0.1,1.8-0.1,2.7-0.2c0.4,0,0.7-0.1,0.8,0.5
		c0,0.6-0.3,0.6-0.7,0.6c-1.7,0-3.4,0-5.1,0c-0.6,0-0.8-0.1-0.8-0.7c0.3-3.5,0.3-7.1,0-10.6c-0.1-0.9,0.5-0.7,1-0.7
		c0.5,0,1-0.1,1,0.7C114.4,67.2,114.4,68.8,114.4,70.4C114.4,70.4,114.4,70.4,114.4,70.4z"/>
	<path class="st1" d="M185,73.1c0-0.8,0-1.5,0-2.3c0-0.7,0.3-1.8-1.1-1.5c-0.3,0-0.3-0.2-0.3-0.4c0-0.3,0.2-0.3,0.4-0.3
		c1,0.2,1-0.5,1.1-1.1c0.3-1.5,0.9-2.8,2.3-3.6c0.4-0.2,1-0.3,1.4,0c0.3,0.2,0,0.6,0,0.9c0,0.5-0.3,0.5-0.7,0.4
		c-0.7-0.1-1.4-0.2-1.7,0.6c-0.3,0.9-0.2,1.8,0.2,2.6c0.2,0.4,0.8,0.1,1.2,0.2c0.3,0,0.6,0,0.5,0.5c0,0.4-0.3,0.3-0.6,0.3
		c-1.3-0.3-1.4,0.4-1.3,1.4c0.1,1.8,0,3.6,0.1,5.4c0,0.7-0.2,0.9-0.9,0.9c-0.7,0-0.9-0.2-0.8-0.9c0.1-1,0-1.9,0-2.9
		C184.9,73.1,185,73.1,185,73.1z"/>
	<path class="st1" d="M200.4,70.5c-1-1.5-1.7-1.8-3.1-1.5c-1.2,0.3-1.8,1.1-2,2.7c-0.4,3.1,0.9,4.9,3.3,4.7c0.8-0.1,1.4-0.5,1.9-1
		c0.2,0.7-0.1,1-0.6,1.3c-1.6,0.8-4,0.5-5.3-0.6c-1.3-1.2-1.7-3.3-1-5.2c0.6-1.7,2.1-2.6,4.1-2.6c0.4,0,0.9,0,1.3,0.1
		C200.7,68.5,200.9,68.8,200.4,70.5z"/>
	<path class="st1" d="M176.8,65.9c0,0.4,0,0.8,0,1.2c-0.1,1-0.1,1.7,1.2,1.4c0.2,0,0.5,0,0.5,0.3c0,0.4-0.3,0.5-0.6,0.4
		c-1.2-0.3-1.3,0.4-1.3,1.3c0,1.4-0.1,2.8,0,4.3c0.1,0.9,0.4,1.6,1.5,1.5c0.2,0,0.5-0.1,0.6,0.3c0,0.3-0.3,0.4-0.5,0.4
		c-1.8,0.6-3.1-0.3-3.1-2.2c0-1.5,0-3.1,0.1-4.6c0-0.6,0-1.1-0.8-1c-0.2,0-0.5,0-0.5-0.3c0-0.4,0.3-0.4,0.6-0.4
		c0.5,0,0.9-0.1,0.7-0.6C174.9,66.6,175.7,66.2,176.8,65.9z"/>
	<path class="st1" d="M212.8,66c0.2,0.3,0.1,0.6,0.1,0.9c-0.1,0.9-0.3,2,1.3,1.6c0.3-0.1,0.5,0,0.5,0.4c0,0.3-0.3,0.4-0.5,0.4
		c-1.5-0.3-1.4,0.7-1.4,1.6c0,1.3,0,2.5,0,3.8c0,1,0.4,1.8,1.6,1.7c0.2,0,0.5-0.1,0.5,0.3c0,0.2-0.2,0.3-0.4,0.4
		c-1.7,0.6-3.2-0.3-3.2-2.1c0-1.5,0-3.1,0-4.6c0-0.6,0-1.2-0.9-1c-0.3,0-0.5,0-0.5-0.4c0-0.3,0.3-0.4,0.5-0.3
		c0.5,0.1,0.8-0.1,0.8-0.7C211.3,66.5,211.3,66.5,212.8,66z"/>
	<path class="st1" d="M170.1,70c0.8-0.9,1.4-1.6,2.3-1.7c0.5-0.1,0.9,0,0.8,0.7c-0.1,0.4,0.2,0.9-0.7,0.9c-1.5-0.1-2.1,0.5-2.4,2
		c-0.2,1.4-0.1,2.8,0,4.2c0.1,0.7-0.2,0.8-0.8,0.8c-0.6,0-1,0-0.9-0.8c0.1-2.1,0-4.2,0.1-6.3c0-0.5-0.4-1.2,0.7-1.2
		C170.2,68.5,170.3,68.9,170.1,70z"/>
	<path class="st1" d="M243.1,71.9c0,2.6-0.8,4.9-2.5,6.8c-0.2,0.2-0.3,0.7-0.7,0.4c-0.3-0.3,0.1-0.5,0.2-0.7
		c2.2-3.7,2.2-7.5,0.8-11.3c-0.1-0.3-0.3-0.6-0.4-0.9c-0.2-0.4-1-0.9-0.4-1.3c0.3-0.3,0.7,0.5,1,0.9
		C242.5,67.5,243.1,69.6,243.1,71.9z"/>
	<path class="st1" d="M145.6,79.3c-4-3.5-4.3-10.6-0.6-14.2c0.2-0.2,0.3-0.5,0.6-0.2c0.3,0.3-0.1,0.6-0.2,0.8
		c-2.2,3.8-2.2,7.6-0.6,11.6C145,77.9,145.7,78.3,145.6,79.3z"/>
	<path class="st1" d="M189.8,72.7c0-1.1,0-2.3,0-3.4c0-0.7,0.2-0.8,0.8-0.8c0.6,0,0.9,0.1,0.9,0.9c-0.1,2.2,0,4.5,0,6.7
		c0,0.7-0.2,0.9-0.9,0.9c-0.7,0-0.9-0.3-0.8-0.9C189.8,74.9,189.8,73.8,189.8,72.7C189.8,72.7,189.8,72.7,189.8,72.7z"/>
	<path class="st1" d="M218,72.8c0,1.1-0.1,2.2,0,3.3c0.1,0.8-0.4,0.8-0.9,0.8c-0.7,0-0.8-0.2-0.8-0.8c0-2.3,0-4.5,0-6.8
		c0-0.7,0.3-0.7,0.9-0.7c0.6,0,0.9,0.1,0.8,0.8C218,70.5,218,71.6,218,72.8C218,72.8,218,72.8,218,72.8z"/>
	<path class="st1" d="M180.2,72.7c0-1.1,0-2.3,0-3.4c0-0.7,0.3-0.8,0.8-0.8c0.6,0,0.9,0,0.9,0.8c0,2.3,0,4.5,0,6.8
		c0,0.8-0.3,0.8-0.9,0.8c-0.7,0-0.8-0.2-0.8-0.8C180.3,74.9,180.2,73.8,180.2,72.7C180.2,72.7,180.2,72.7,180.2,72.7z"/>
	<path class="st1" d="M121.3,73.4c-0.4,0-0.9,0-1.3,0c-0.5,0-0.7-0.2-0.7-0.7c0-0.5,0-0.9,0.7-0.8c1,0,1.9,0,2.9,0
		c0.6,0,0.7,0.3,0.7,0.7c0,0.4,0,0.8-0.6,0.8C122.3,73.4,121.8,73.4,121.3,73.4z"/>
	<path class="st1" d="M218.2,65.4c-0.1,0.6-0.4,1-1,0.9c-0.6,0-0.9-0.3-1-0.9c0-0.6,0.3-1,0.9-1C217.8,64.4,218.2,64.8,218.2,65.4z"
		/>
	<path class="st1" d="M182.2,65.5c-0.1,0.6-0.4,0.9-1.1,0.9c-0.6,0-0.9-0.4-0.9-0.9c0-0.6,0.4-1,1-1
		C181.8,64.5,182.1,64.8,182.2,65.5z"/>
	<path class="st1" d="M191.7,65.4c-0.1,0.7-0.4,1-1,1c-0.6,0-0.9-0.3-0.9-0.9c0-0.6,0.4-1,1-1C191.3,64.4,191.6,64.8,191.7,65.4z"/>
	<path class="st0" d="M160.1,20.8C159.3,13.2,153.7,9,146,9.9c-2.1,0.3-4,1-5.6,2.3c-3.4,2.9-4.4,6.7-4.4,11.2
		c0,0.1,0.1,0.6,0.1,1.1c0.4,7.1,4.8,11.4,11.8,11.6c5.5,0.1,9.8-2.7,11.4-7.5C160.2,26.1,160.3,23.5,160.1,20.8z M153.4,29.1
		c-2.5,3.6-8,3.6-10.5,0.1c-2.1-2.9-2.3-8.9-0.4-11.9c1.5-2.4,4.1-3.5,6.9-3c2.7,0.5,4.6,2.4,5.2,5.1c0.3,1.2,0.3,2.4,0.4,3.3
		C154.9,25.2,154.7,27.2,153.4,29.1z"/>
	<path class="st0" d="M187.7,14.9c-1.6-4.2-6.9-6.1-10.9-4c-3.3,1.7-4.8,5.3-4.3,9.4c0.7,5.2,6.6,9.3,11.6,4.9
		c-0.1,1.9-0.3,3.6-1.1,5.2c-0.6,1.1-1.6,1.8-2.9,1.7c-1.3-0.1-2.2-0.8-2.4-2.2c-0.1-0.5-0.3-0.7-0.8-0.6c-1.1,0.2-2.3,0.3-3.4,0.4
		c-0.4,0-0.6,0.1-0.5,0.6c0.4,1.8,1.1,3.4,2.6,4.5c3.8,2.8,10.3,1,12.1-3.6C189.7,25.9,189.8,20.3,187.7,14.9z M183.3,21.7
		c-0.6,1.1-1.4,1.8-2.7,1.8c-1.3,0-2.3-0.6-2.8-1.7c-0.9-1.9-0.9-4-0.1-5.9c0.8-1.8,2.9-2.2,4.5-0.9c1,0.9,1.5,2.2,1.6,4.2
		C183.7,19.9,183.7,20.9,183.3,21.7z"/>
	<path class="st0" d="M227.7,17.9c-0.2-0.9-0.4-1.9-0.8-2.8c-1.1-3.1-3.8-5.1-7-5c-3.3,0-5.8,1.9-6.9,5c-1.7,5.3-1.6,10.6-0.1,15.8
		c0.9,3.2,3.7,5.2,7,5.2c3.4,0,5.9-1.8,7-5.1c0.9-2.5,1-5.2,1.1-8.1C228,21.5,228.1,19.7,227.7,17.9z M222.6,29.5
		c-0.1,0.3-0.2,0.6-0.3,0.9c-0.4,1-1.1,1.7-2.3,1.7c-1.1,0-1.9-0.6-2.3-1.7c-0.5-1.2-0.6-2.4-0.7-3.7c-0.1-1.2,0-2.4,0-3.5
		c0-1.9,0-3.8,0.3-5.7c0.3-2,1.3-3.3,2.7-3.3c1.4-0.1,2.4,1,2.8,3.1C223.4,21.4,223.3,25.4,222.6,29.5z"/>
	<path class="st0" d="M208.2,17.9c-0.2-1-0.5-2-0.9-3c-1.1-3-3.8-4.9-6.9-4.8c-3.3,0.1-5.8,1.9-6.8,4.9c-1.7,5.3-1.7,10.7-0.1,16.1
		c0.9,3.1,3.7,5,7,5.1c3.3,0,5.8-1.7,7-4.9c0.9-2.6,1.2-5.3,1.2-8.5C208.5,21.5,208.5,19.7,208.2,17.9z M203.1,29.2
		c-0.1,0.4-0.2,0.9-0.4,1.3c-0.4,1-1.2,1.7-2.3,1.7c-1.1,0-1.8-0.6-2.2-1.6c-0.5-1.1-0.6-2.2-0.7-3.3c-0.2-3.2-0.2-6.4,0.2-9.6
		c0.3-2.1,1.3-3.4,2.7-3.4c1.4,0,2.3,1.1,2.7,3.2c0.4,1.9,0.4,3.9,0.4,5.7C203.6,25.2,203.5,27.2,203.1,29.2z"/>
	<path class="st1" d="M224.4,68.3c-2.7,0-4.4,1.7-4.4,4.4c0,2.8,1.6,4.5,4.3,4.5c2.7,0,4.4-1.7,4.4-4.4
		C228.6,70,227,68.3,224.4,68.3z M226.2,75.3c-0.4,0.8-1,1.2-1.8,1.2c-0.9,0-1.6-0.3-2-1.1c-0.9-1.8-0.8-3.6,0-5.4
		c0.4-0.8,1.1-1.1,1.9-1.1c0.8,0,1.5,0.4,1.9,1.1c0.4,0.8,0.6,1.7,0.6,2.6C226.8,73.6,226.6,74.5,226.2,75.3z"/>
	<path class="st1" d="M208.4,74.8c0-1.6,0.1-3.2-0.2-4.7c-0.2-1.1-0.9-1.7-2-1.8c-1.4-0.1-2.8-0.2-3.7,1.2c-0.1,0.2-0.2,0.5,0,0.7
		c0.4,0,0.5-0.4,0.7-0.6c0.7-0.8,1.6-0.8,2.5-0.6c0.8,0.3,1.2,1,1.2,1.8c0,0.8-0.6,0.9-1.2,1.1c-0.8,0.2-1.5,0.3-2.2,0.6
		c-1.3,0.5-1.8,1.4-1.5,2.8c0.2,1.2,1.1,1.8,2.4,1.8c0.8,0,1.4-0.3,2-0.7c0.2-0.2,0.4-0.6,0.7-0.1c0.8,1.2,1.7,0.5,2.6,0.1
		C208.5,76.4,208.4,75.6,208.4,74.8z M206.8,73.7c0.1,1-0.1,1.8-1,2.3c-0.7,0.3-1.5,0.4-2.1-0.4c-0.5-0.7-0.3-1.7,0.4-2.2
		c0.6-0.4,1.4-0.7,2.2-0.7C207.4,72.5,206.6,73.4,206.8,73.7z"/>
	<path class="st1" d="M161.6,72.6c1.4,0,2.8,0,4.3,0.1c0.8,0,1-0.3,0.9-1c-0.1-1.7-1.1-3-2.6-3.3c-1.9-0.5-3.6,0.2-4.6,1.7
		c-1.1,1.8-0.9,4.6,0.4,5.9c1.2,1.2,3.7,1.5,5.6,0.6c0.6-0.3,0.7-0.6,0.6-1.2c-2.8,1.8-5,1-5.4-1.9C160.7,72.7,161,72.6,161.6,72.6z
		 M161.8,69.5c0.7-0.6,1.5-0.7,2.2-0.3c0.8,0.4,1.1,1.3,1.1,2.2c0,0.6-0.5,0.5-0.9,0.5c-0.4,0-0.9,0-1.3,0c0,0,0,0,0,0
		c0,0-0.1,0-0.1,0c-0.6-0.1-1.5,0.4-1.8-0.3C160.7,70.9,161.1,70,161.8,69.5z"/>
</g>
</svg>
