<?xml version="1.0" encoding="utf-8"?>
<!-- Generator: Adobe Illustrator 21.1.0, SVG Export Plug-In . SVG Version: 6.00 Build 0)  -->
<svg version="1.1" id="Layer_1" xmlns="http://www.w3.org/2000/svg" xmlns:xlink="http://www.w3.org/1999/xlink" x="0px" y="0px"
	 viewBox="0 0 243.3 100" style="enable-background:new 0 0 243.3 100;" xml:space="preserve">
<style type="text/css">
	.st0{fill:#214188;}
	.st1{fill:#6B80B0;}
	.st2{fill:#224188;}
	.st3{fill:#707173;}
	.st4{fill:#6E6F71;}
</style>
<g>
	<path class="st0" d="M61.7,0c0.6,0.4,1.3,0.4,1.9,0.6c3.9,1.2,6.9,3.5,9,7c0.4,0.7,0.1,1-0.3,1.5C61.9,23.4,51.2,37.7,40.9,52.1
		c-4.3,6-8.5,12-12.7,18c-0.6,0.8-0.9,0.8-1.7,0.3c-6.6-4.7-13.9-8.1-21.6-10.8c-0.4-0.1-0.8-0.3-1.2-0.1
		c7.4,13,13.6,26.6,19.2,40.4c-2.9,0-5.9,0-8.8,0c-0.4-0.3-0.8-0.1-1.2-0.1c-3.2,0-5.7-1.5-8-3.5c-2.8-2.5-4.5-5.5-4.9-9.3
		c0-24.7,0-49.4,0-74.1c0.8-6.1,4.3-10,9.9-12.3c1.1-0.4,2.2-0.3,3.3-0.6C29.3,0,45.5,0,61.7,0z"/>
	<path class="st0" d="M30.2,100c-0.1-0.5,0.2-0.8,0.4-1.2c9.3-21.4,20-42.1,31.4-62.5c3.9-7,7.9-14,11.9-21c0.2-0.3,0.3-0.5,0.7-1.1
		c0,0.7,0.1,1.1,0.1,1.5c0,22.9,0,45.8,0,68.6c0,7.6-4.5,13.5-11.7,15.2c-0.5,0.1-1.1,0-1.5,0.4C51.1,100,40.7,100,30.2,100z"/>
	<path class="st1" d="M12.9,100c0-0.1,0-0.1,0-0.2c0.4,0,0.9-0.2,1.3,0.2C13.7,100,13.3,100,12.9,100z"/>
	<path class="st2" d="M127.2,19.5c-0.3,0-0.6,0-0.9,0c-1,0.1-1.7,0-1.8-1.3c-0.1-0.8-0.8-1.4-1.6-1.7c-1.4-0.5-2.9-0.7-4.4-0.1
		c-1.1,0.4-1.7,1.1-1.7,2.3c0,1.2,0.7,1.7,1.7,2c2.1,0.6,4.2,1.2,6.3,1.8c2.5,0.7,4.7,2,5.4,4.7c0.8,3-0.6,6.4-3.6,7.7
		c-4.1,1.8-8.2,1.8-12.1-0.5c-2-1.2-3-3-3.2-5.3c-0.1-0.7,0-1.2,0.9-1c0.5,0.1,1,0,1.5,0c1.3,0,2.6-0.4,2.9,1.8
		c0.2,1.5,1.8,2.1,3.3,2.3c1.4,0.2,2.7,0.1,4.1-0.4c1-0.4,1.6-1.1,1.7-2.2c0.1-1-0.5-1.8-1.4-2.3c-1.1-0.6-2.3-0.9-3.6-1.2
		c-1.5-0.4-3.1-0.8-4.5-1.4c-2.4-0.9-4-2.5-4.1-5.2c-0.1-2.7,1.1-4.8,3.5-6.1c3.5-2,9.2-1.5,12,0.9c1.3,1.1,1.9,2.5,2.2,4.2
		c0.1,0.9-0.2,1-0.9,1C128.2,19.5,127.7,19.5,127.2,19.5z"/>
	<path class="st3" d="M173.8,52.4c-22.6,0-45.3,0-67.9,0c-0.4,0-1.2,0.4-1.3-0.6c-0.1-0.8,0-1.2,1-1.2c2.7,0.1,5.4,0,8,0
		c42.8,0,85.5,0,128.3,0c0.9,0,1.6,0,1.4,1.2c-0.1,0.4-0.2,0.6-0.6,0.6c-0.3,0-0.7,0-1,0C219,52.4,196.4,52.4,173.8,52.4z"/>
	<path class="st2" d="M169.1,31.7c3.2,0,6.2,0,9.2,0c1.1,0,1.5,0.2,1.4,1.4c-0.1,2.6,0,2.6-2.6,2.6c-4.3,0-8.5,0-12.8,0
		c-0.9,0-1.2-0.1-1.1-1.1c0.4-3.2,2.1-5.4,4.6-7.2c1.7-1.2,3.5-2.4,5.2-3.7c1.4-1,2.2-2.4,1.9-4.2c-0.2-1.5-1.1-2.4-2.6-2.7
		c-1.4-0.3-2.7,0.2-3.4,1.5c-0.5,0.9-0.7,1.8-0.8,2.8c0,0.6-0.3,0.8-0.9,0.8c-0.6,0-1.2,0-1.8,0c-1.8,0-1.9,0-1.6-1.9
		c0.5-3.2,1.9-5.6,5.1-6.6c3.2-1,6.3-0.7,8.8,1.9c2.8,2.9,2.4,7.7-1,10.4c-1.8,1.5-3.8,2.8-5.7,4.1
		C170.3,30.2,169.8,30.9,169.1,31.7z"/>
	<path class="st2" d="M191.4,17.4c-3.3,0-6.4,0-9.5,0c-0.9,0-1.2-0.2-1.2-1.1c0-3.1,0-3.1,3.1-3.1c3.8,0,7.6,0,11.3,0
		c0.8,0,1.1,0.2,1,1c0,0.3,0,0.7,0,1c0.2,1.3-0.3,2.3-1.3,3.3c-2.8,3.1-4.3,6.9-5.3,10.9c-0.4,1.7-0.8,3.5-0.8,5.3
		c0,0.8-0.3,0.9-1,0.9c-1-0.1-2-0.1-2.9,0c-1,0.1-1-0.3-0.9-1.1c0.8-6,3-11.4,6.7-16.2C190.9,18.1,191,17.9,191.4,17.4z"/>
	<path class="st2" d="M243,24.4c0,3.4,0,6.7,0,10.1c0,1-0.3,1.2-1.2,1.1c-0.8-0.1-1.5-0.1-2.3,0c-0.8,0.1-1.1-0.2-1.1-1.1
		c0-4.1,0-8.2,0-12.3c0-1-0.2-1.3-1.2-1.2c-1.2,0.1-2.4,0-3.5,0c-0.8,0-1-0.2-0.9-1c0.1-0.7-0.2-1.6,0.1-2.2c0.4-0.7,1.3-0.3,2-0.4
		c2.1-0.5,3.8-1.5,4.3-3.8c0.1-0.5,0.3-0.5,0.8-0.6c3-0.3,3-0.3,3,2.7C243,18.7,243,21.5,243,24.4z"/>
	<path class="st2" d="M104,24.2c0-3.5,0-6.9,0-10.4c0-0.8,0.2-1.2,1.1-1.1c1,0.1,2,0.1,2.9,0c0.8-0.1,1.1,0.2,1.1,1.1
		c0,4.2,0,8.4,0,12.5c0,2.8,0,5.6,0,8.4c0,0.7-0.1,0.9-0.9,0.9c-1.1-0.1-2.2-0.1-3.3,0c-0.8,0.1-0.9-0.3-0.9-1
		C104,31.2,104,27.7,104,24.2z"/>
	<path class="st4" d="M157.4,67.3c-1.1-1.5-2.5-2.2-4.3-1.9c-2.3,0.4-3.6,2.1-3.7,5.1c-0.1,3.2,1.6,5.5,4.2,5.7
		c1.6,0.1,2.9-0.6,4-1.7c0.3,1.3,0.2,1.4-0.8,1.9c-1.7,0.7-3.4,0.9-5.1,0.5c-2.9-0.7-4.6-3.3-4.3-6.6c0.2-3.3,2.3-5.4,5.4-5.7
		c1.3-0.1,2.5,0,3.7,0.4C158.1,65.6,158.1,65.6,157.4,67.3z"/>
	<path class="st4" d="M135.1,67.3c-0.6-0.7-1.1-1.3-1.9-1.6c-2.4-1-5,0.1-5.8,2.6c-0.5,1.5-0.5,3.1-0.1,4.7c0.9,3.1,4.2,4.3,6.9,2.4
		c0.4-0.2,0.7-0.5,1.1-0.8c0.3,1.1-0.1,1.6-1,2c-1.6,0.6-3.2,0.8-4.9,0.4c-2.9-0.6-4.6-3.3-4.4-6.4c0.3-3.5,2.2-5.6,5.5-5.9
		c1.3-0.1,2.5,0,3.7,0.4C135.7,65.6,135.7,65.6,135.1,67.3z"/>
	<path class="st4" d="M232.1,69.6c1-1,2-1.5,3.3-1.4c1.3,0.1,2.1,0.9,2.2,2.2c0.1,1.9,0.1,3.8,0.2,5.7c0,0.6-0.2,0.8-0.8,0.7
		c-0.5,0-1,0.1-0.9-0.7c0.1-1.6,0.1-3.2,0-4.7c0-1.3-0.7-2-1.7-2.1c-1.1-0.1-1.9,0.5-2.1,1.8c-0.3,1.6-0.3,3.1-0.2,4.7
		c0,0.5,0.2,1-0.7,1c-0.9,0-1-0.3-1-1.1c0.1-2.1,0-4.1,0-6.2c0-0.5-0.3-1.1,0.7-1.1C232.1,68.5,232.1,68.9,232.1,69.6z"/>
	<path class="st4" d="M104.4,70.9c0-1.7,0.1-3.4,0-5.1c0-0.8,0.3-0.9,1-0.9c0.6,0,1,0,1,0.9c-0.1,3.1,0,6.2-0.1,9.2
		c0,0.8,0.2,1.2,1.1,1.1c1-0.1,1.9-0.1,2.9-0.2c0.3,0,0.7-0.1,0.7,0.4c0,0.5-0.1,0.7-0.6,0.7c-1.8,0-3.6,0-5.5,0
		c-0.7,0-0.5-0.5-0.5-0.8C104.3,74.3,104.4,72.6,104.4,70.9C104.4,70.9,104.4,70.9,104.4,70.9z"/>
	<path class="st4" d="M114.4,70.4c0,1.6,0,3.2,0,4.8c0,0.7,0.2,0.9,0.9,0.9c1-0.1,2-0.1,3-0.2c0.4,0,0.7-0.1,0.7,0.5
		c0,0.5-0.2,0.6-0.7,0.6c-1.7,0-3.4-0.1-5.1,0c-0.8,0-0.9-0.2-0.8-0.9c0.2-2.4,0.3-4.8,0.2-7.2c0-1.1-0.1-2.1-0.2-3.2
		c-0.1-0.8,0.3-0.9,0.9-0.8c0.5,0,1.1-0.2,1.1,0.8C114.4,67.2,114.4,68.8,114.4,70.4C114.4,70.4,114.4,70.4,114.4,70.4z"/>
	<path class="st4" d="M185,73c0-0.9,0-1.7,0-2.6c0-0.7,0.1-1.5-1-1.2c-0.2,0-0.4-0.1-0.4-0.3c0-0.3,0.2-0.4,0.5-0.4
		c0.9,0.2,0.9-0.4,1-1.1c0.3-1.5,0.9-2.9,2.3-3.7c0.4-0.2,1-0.3,1.4,0c0.3,0.2,0,0.6-0.1,0.9c0,0.5-0.4,0.4-0.7,0.4
		c-0.7-0.1-1.4-0.2-1.7,0.6c-0.3,0.9-0.2,1.8,0.2,2.6c0.2,0.4,0.7,0.1,1.1,0.2c0.3,0,0.6-0.1,0.6,0.4c0,0.5-0.3,0.4-0.6,0.4
		c-1.2-0.3-1.3,0.3-1.3,1.3c0.1,1.8,0,3.6,0.1,5.4c0,0.7-0.1,1-0.9,1c-0.8,0-0.8-0.3-0.8-0.9c0-1,0-1.9,0-2.9C185,73,185,73,185,73z
		"/>
	<path class="st4" d="M200.4,70.5c-1-1.5-1.8-1.8-3.1-1.5c-1.4,0.4-1.9,1.4-2,2.7c-0.4,3.1,0.9,4.9,3.4,4.6c0.8-0.1,1.3-0.5,1.9-0.9
		c0.2,0.7-0.1,1-0.7,1.3c-1.6,0.8-4,0.5-5.3-0.6c-1.3-1.2-1.7-3.3-1-5.2c0.6-1.7,2.1-2.6,4.1-2.6c0.4,0,0.9,0,1.3,0.1
		C200.7,68.5,200.9,68.8,200.4,70.5z"/>
	<path class="st4" d="M176.8,65.9c0,0.4,0,0.8,0,1.2c-0.1,1-0.1,1.7,1.3,1.4c0.2-0.1,0.5,0,0.5,0.3c0,0.4-0.3,0.5-0.6,0.4
		c-1.2-0.3-1.3,0.4-1.3,1.3c0,1.4-0.1,2.8,0,4.3c0.1,0.9,0.4,1.6,1.5,1.5c0.2,0,0.5-0.1,0.6,0.3c0,0.3-0.3,0.4-0.5,0.4
		c-1.8,0.6-3.1-0.3-3.1-2.2c0-1.5,0-3.1,0.1-4.6c0-0.6,0-1.1-0.8-1c-0.2,0-0.5,0-0.5-0.3c0-0.4,0.3-0.4,0.6-0.4
		c0.5,0,0.7-0.1,0.7-0.6C175.3,66.5,175.3,66.5,176.8,65.9z"/>
	<path class="st4" d="M212.9,65.9c0,0.4,0,0.8,0,1.2c-0.1,0.9-0.1,1.7,1.2,1.4c0.3-0.1,0.6-0.1,0.6,0.4c0,0.4-0.4,0.4-0.6,0.3
		c-1.1-0.2-1.3,0.3-1.3,1.3c0,1.4,0,2.8,0,4.1c0,1,0.4,1.8,1.6,1.7c0.2,0,0.4-0.1,0.5,0.2c0.1,0.3-0.2,0.4-0.4,0.5
		c-1.7,0.6-3.2-0.3-3.2-2.1c0-1.5,0-3.1,0-4.6c0-0.6,0-1.2-0.9-1c-0.3,0-0.5-0.1-0.5-0.4c0-0.3,0.3-0.4,0.5-0.3
		c0.5,0.1,0.9-0.1,0.8-0.7C211,66.5,211.9,66.2,212.9,65.9z"/>
	<path class="st4" d="M170.2,69.7c0.8-0.7,1.4-1.4,2.3-1.4c0.6,0,0.7,0.2,0.6,0.7c-0.1,0.3,0.3,0.9-0.6,0.9
		c-1.7-0.1-2.2,0.5-2.5,2.1c-0.2,1.3-0.1,2.6,0,3.9c0,0.6,0.1,1.1-0.8,1c-0.8,0-0.9-0.3-0.9-1c0.1-2.1,0-4.1,0-6.2
		c0-0.5-0.4-1.2,0.7-1.2C170.3,68.5,170.4,68.9,170.2,69.7z"/>
	<path class="st4" d="M243.2,72c0,2.6-0.8,4.9-2.5,6.8c-0.2,0.2-0.3,0.6-0.6,0.4c-0.3-0.2,0-0.5,0.1-0.7c2.4-4.3,2.4-8.6,0-12.8
		c-0.1-0.2-0.4-0.5-0.1-0.7c0.4-0.3,0.5,0.2,0.6,0.3C242.4,67.1,243.2,69.4,243.2,72z"/>
	<path class="st4" d="M142.4,71.9c0-2.5,0.8-4.8,2.5-6.7c0.2-0.2,0.3-0.7,0.7-0.4c0.3,0.2,0,0.5-0.2,0.7c-2.4,4.3-2.4,8.6,0,12.8
		c0.1,0.2,0.4,0.5,0.1,0.7c-0.3,0.2-0.5-0.2-0.6-0.4C143.3,76.9,142.4,74.5,142.4,71.9z"/>
	<path class="st4" d="M216.4,72.6c0-1.1,0-2.1,0-3.2c0-0.6,0.1-0.9,0.8-0.9c0.7,0,0.9,0.2,0.9,0.9c0,2.2,0,4.4,0,6.6
		c0,0.7-0.1,1-0.9,1c-0.8,0-0.8-0.3-0.8-0.9C216.4,74.8,216.3,73.7,216.4,72.6C216.3,72.6,216.4,72.6,216.4,72.6z"/>
	<path class="st4" d="M182,72.7c0,1.1-0.1,2.3,0,3.4c0.1,0.8-0.4,0.8-1,0.8c-0.7,0-0.8-0.3-0.8-0.8c0-2.3,0.1-4.5,0-6.8
		c0-0.8,0.4-0.7,0.9-0.7c0.6,0,0.9,0.1,0.8,0.8C181.9,70.4,181.9,71.5,182,72.7C182,72.7,182,72.7,182,72.7z"/>
	<path class="st4" d="M189.8,72.6c0-1.1,0-2.1,0-3.2c0-0.6,0.1-0.9,0.8-0.9c0.7,0,0.9,0.2,0.9,0.9c0,2.2,0,4.4,0,6.6
		c0,0.7-0.1,1-0.9,1c-0.8,0-0.8-0.3-0.8-0.9C189.8,74.8,189.8,73.7,189.8,72.6C189.8,72.6,189.8,72.6,189.8,72.6z"/>
	<path class="st4" d="M121.4,71.9c0.4,0,0.9,0,1.3,0c0.6,0,0.7,0.3,0.7,0.8c0,0.5-0.2,0.7-0.7,0.7c-1,0-1.9,0-2.9,0
		c-0.6,0-0.6-0.3-0.6-0.8c0-0.4,0-0.8,0.6-0.8C120.4,71.9,120.9,71.9,121.4,71.9z"/>
	<path class="st4" d="M218.3,65.4c-0.1,0.7-0.4,1-1,1c-0.6,0-0.9-0.3-0.9-0.9c0-0.6,0.4-1,1-1C217.9,64.4,218.2,64.8,218.3,65.4z"/>
	<path class="st4" d="M189.7,65.3c0.1-0.6,0.5-1,1.1-0.9c0.6,0.1,0.9,0.4,0.9,1.1c-0.1,0.6-0.4,0.9-1,0.8
		C190.1,66.3,189.8,66,189.7,65.3z"/>
	<path class="st4" d="M182.2,65.4c0,0.6-0.3,1-1,1c-0.6,0-0.9-0.3-1-0.8c-0.1-0.6,0.3-1,0.9-1.1C181.7,64.4,182.1,64.7,182.2,65.4z"
		/>
	<path class="st2" d="M154,22.5c-1-9.3-9.8-12.4-16.4-9.1c-4.4,2.2-5.8,6.2-5.9,10.3c0,2.8,0.5,4.9,1.5,6.9
		c3.4,6.6,13.9,7.5,18.4,1.6C153.7,29.3,154.3,26.1,154,22.5z M149,24.2c0,1.3-0.2,2.6-0.6,3.8c-0.9,2.5-2.9,3.9-5.6,4
		c-2.7,0-4.7-1.4-5.6-4c-0.9-2.6-0.9-5.2,0.1-7.7c0.9-2.5,3.3-3.9,5.8-3.7c3,0.3,4.9,2,5.6,5C149,22.4,149.1,23.3,149,24.2z"/>
	<path class="st2" d="M212.4,17.3c-1.2-2.8-3.8-4.5-7-4.5c-3.1,0-5.8,1.6-6.9,4.4c-1.9,4.8-1.8,9.7,0,14.5c1.1,2.8,3.4,4.3,6.4,4.4
		c2.8,0.1,5.2-0.8,6.8-3.3c1.6-2.5,1.8-5.4,1.9-8.2C213.6,22,213.4,19.6,212.4,17.3z M208.4,30c-0.6,1.6-1.6,2.3-3.1,2.3
		c-1.3,0-2.4-0.8-2.9-2.4c-1.1-3.6-1.1-7.3,0-10.9c0.5-1.7,1.6-2.4,3-2.4c1.4,0,2.4,0.8,3,2.4c0.7,1.8,0.6,3.7,0.7,5.4
		C209,26.3,209.1,28.2,208.4,30z"/>
	<path class="st2" d="M229,16.6c-1.2-2.8-3.7-3.9-6.7-3.9c-2.9,0-5.3,1.2-6.7,3.9c-1.3,2.4-1.5,5-1.5,7.7c0.1,2.4,0.3,4.9,1.3,7.1
		c1.2,2.8,3.3,4.3,6.4,4.5c2.9,0.2,5.5-0.6,6.9-3.2C231.4,27.5,231.3,22,229,16.6z M225.3,30c-0.5,1.5-1.6,2.3-3,2.3
		c-1.5,0-2.3-0.9-2.9-2.2c-0.8-1.9-0.7-3.8-0.7-5.8c0-1.8,0-3.7,0.7-5.4c0.6-1.6,1.6-2.3,2.9-2.4c1.4,0,2.6,0.7,3,2.3
		C226.5,22.6,226.4,26.3,225.3,30z"/>
	<path class="st4" d="M224.4,68.2c-2.7,0-4.4,1.7-4.4,4.4c0,2.8,1.6,4.5,4.3,4.5c2.7,0,4.4-1.7,4.4-4.4
		C228.7,70,227,68.3,224.4,68.2z M226.3,75.3c-0.4,0.8-1,1.2-1.8,1.2c-0.9,0-1.6-0.3-2-1.1c-0.9-1.8-0.8-3.6,0-5.4
		c0.4-0.8,1.1-1.1,1.9-1.1c0.8,0,1.5,0.4,1.9,1.1c0.4,0.8,0.6,1.7,0.6,2.7C226.9,73.6,226.7,74.5,226.3,75.3z"/>
	<path class="st4" d="M208.4,74.6c0-1.5,0.1-2.9-0.1-4.4c-0.1-0.7-0.3-1.4-1-1.7c-1.4-0.5-2.9-0.6-4.2,0.3c-0.5,0.3-0.7,0.8-0.3,1.5
		c0.7-1.1,1.7-1.6,2.9-1.3c0.9,0.2,1.3,0.9,1.3,1.8c0,0.9-0.6,1-1.3,1.1c-0.8,0.2-1.7,0.4-2.4,0.7c-1.2,0.5-1.5,1.4-1.3,2.6
		c0.2,1.2,0.9,1.7,2.1,1.8c0.9,0.1,1.7-0.2,2.4-0.7c0.2-0.1,0.4-0.5,0.7-0.1c0.8,1.3,1.7,0.6,2.7,0.2C208.5,76,208.5,76,208.4,74.6z
		 M206.9,73.6c0.1,1-0.1,1.8-1,2.3c-0.7,0.3-1.5,0.4-2.1-0.4c-0.5-0.7-0.3-1.7,0.4-2.3c0.6-0.4,1.4-0.7,2.2-0.7
		C207.4,72.5,206.6,73.4,206.9,73.6z"/>
	<path class="st4" d="M161.5,72.6c1.5,0,3,0,4.5,0c0.7,0,0.8-0.2,0.8-0.8c-0.1-1.7-1.1-3.1-2.6-3.5c-1.8-0.5-3.7,0.2-4.6,1.7
		c-1.1,1.8-0.9,4.6,0.4,5.9c1.2,1.3,3.7,1.5,5.6,0.6c0.5-0.3,0.7-0.6,0.6-1.2c-2.9,1.9-5.1,1-5.5-2
		C160.8,72.8,160.9,72.6,161.5,72.6z M161.2,70.2c0.5-1,1.3-1.4,2.4-1.1c0.8,0.2,1.5,1.3,1.5,2.3c0,0.4-0.2,0.6-0.6,0.6
		c-0.5,0-1,0-1.6,0c0,0,0,0,0,0c-0.2,0-0.4,0-0.6,0C160.8,71.9,160.6,71.5,161.2,70.2z"/>
</g>
</svg>
